<?xml version="1.0" encoding="utf-8"?>
<!-- Generator: Adobe Illustrator 15.1.0, SVG Export Plug-In . SVG Version: 6.00 Build 0)  -->
<!DOCTYPE svg PUBLIC "-//W3C//DTD SVG 1.1//EN" "http://www.w3.org/Graphics/SVG/1.1/DTD/svg11.dtd">
<svg version="1.1" id="Modalità_Isolamento" xmlns="http://www.w3.org/2000/svg" xmlns:xlink="http://www.w3.org/1999/xlink"
	 x="0px" y="0px" width="595px" height="170.079px" viewBox="0 0 595 170.079" enable-background="new 0 0 595 170.079"
	 xml:space="preserve">
<g>
	<rect x="24.2" y="49.618" fill-rule="evenodd" clip-rule="evenodd" fill="#FFEC00" width="63.881" height="63.881"/>
	<path fill-rule="evenodd" clip-rule="evenodd" d="M35.379,103.727H64.95c8.207,0,13.678-5.406,13.678-12.637
		c0-5.732-2.995-9.445-9.574-11.79c4.625-2.02,6.969-5.081,6.969-9.249c0-5.146-3.582-10.748-14.655-10.748H35.379V103.727z
		 M50.945,96.952V84.511h5.081c5.081,0,7.556,2.28,7.556,5.993c0,4.364-2.735,6.448-7.946,6.448H50.945z M50.945,77.737V66.078
		h4.495c5.08,0,7.034,2.409,7.034,5.797c0,3.191-1.954,5.862-7.034,5.862H50.945z"/>
	
		<rect x="100.471" y="55.869" transform="matrix(-0.9848 -0.1737 0.1737 -0.9848 247.5591 197.2794)" fill-rule="evenodd" clip-rule="evenodd" fill="#009FE3" width="63.88" height="63.88"/>
	<path fill-rule="evenodd" clip-rule="evenodd" d="M149.629,99.415c-3.761-0.798-3.817-1.87-3.158-5.259l1.863-9.59
		c1.652-8.504-5.079-13.13-12.88-14.646c-6.073-1.181-11.408-0.36-17.037,2.659l-1.927,9.911c6.459-3.19,10.197-3.989,14.609-3.132
		c3.772,0.733,4.968,2.093,4.499,5.188c-4.115,2.054-14.38,0.588-18.656,3.473c-1.985,1.34-3.277,3.211-3.676,5.257
		c-0.845,4.349,1.595,8.869,9.139,10.336c4.155,0.808,8.075,0.442,11.694-1.11c1.487,3.275,4.676,4.625,11.348,5.457L149.629,99.415
		z M133.573,94.967c-0.298,1.534-0.396,2.378-0.289,3.195c-2.063,1.059-4.667,1.48-6.777,1.07c-2.174-0.423-3.461-2.332-3.039-4.506
		c0.896-4.603,7.406-2.939,11.037-4.555L133.573,94.967z"/>
	<polygon fill-rule="evenodd" clip-rule="evenodd" fill="#ED80B1" points="258.219,50.041 321.12,61.138 310.037,124.042 
		247.136,112.944 	"/>
	<path fill-rule="evenodd" clip-rule="evenodd" d="M297.518,96.941c-4.42,1.927-7.968,2.431-11.548,1.734
		c-5.113-0.995-8.571-5.052-7.965-8.516l22.054,4.29c3.742-11.413-2.712-21.227-13.004-23.229
		c-9.972-1.94-18.891,4.021-20.815,13.93c-1.911,9.845,4.129,19.047,15.764,21.312c6.457,1.255,12.338,0.011,16.877-3.551
		L297.518,96.941z M278.461,85.073c0.711-5.368,3.83-7.083,7.281-6.412c3.836,0.746,5.258,3.676,4.354,8.675L278.461,85.073z"/>
	<polygon fill-rule="evenodd" clip-rule="evenodd" fill="#FFF046" points="330.808,55.525 394.591,58.874 391.254,122.659 
		327.471,119.312 	"/>
	<path fill-rule="evenodd" clip-rule="evenodd" d="M374.507,94.665c-3.684,1.627-5.887,2.251-8.427,2.295
		c-5.014,0.087-8.512-2.522-8.58-6.43c-0.07-3.972,3.137-6.763,7.956-6.847c2.864-0.05,5.61,0.554,8.63,1.87l-0.202-11.395
		c-3.536-1.111-7.453-1.629-11.1-1.566c-13.35,0.231-18.978,9.708-18.826,18.303c0.183,10.353,8.318,17.441,19.845,17.242
		c3.711-0.064,6.438-0.633,10.901-2.339L374.507,94.665z"/>
	<polygon fill-rule="evenodd" clip-rule="evenodd" fill="#80BA27" points="398.976,55.848 462.375,48.069 470.168,111.468 
		406.768,119.248 	"/>
	<path fill-rule="evenodd" clip-rule="evenodd" d="M456.293,91.165c-3.837,0.203-4.17-0.818-4.411-4.261l-0.684-9.746
		c-0.605-8.641-8.304-11.367-16.229-10.813c-6.172,0.431-11.112,2.604-15.767,6.976l0.706,10.069
		c5.411-4.751,8.814-6.491,13.297-6.804c3.833-0.267,5.34,0.738,5.688,3.847c-3.442,3.047-13.735,4.289-17.117,8.181
		c-1.571,1.807-2.335,3.949-2.189,6.028c0.309,4.417,3.836,8.153,11.501,7.618c4.224-0.295,7.914-1.662,11.007-4.098
		c2.284,2.778,5.712,3.257,12.372,2.335L456.293,91.165z M439.635,91.022c0.11,1.56,0.235,2.399,0.549,3.161
		c-1.719,1.557-4.123,2.638-6.268,2.788c-2.208,0.153-3.946-1.356-4.102-3.565c-0.328-4.678,6.391-4.755,9.479-7.256L439.635,91.022
		z"/>
	<polygon fill-rule="evenodd" clip-rule="evenodd" fill="#FBBA00" points="173.663,57.06 237.386,52.604 241.844,116.327 
		178.123,120.782 	"/>
	<polygon fill-rule="evenodd" clip-rule="evenodd" points="188.927,108.524 202.455,107.815 201.622,91.946 201.752,91.939 
		215.333,107.142 232.308,106.253 214.884,87.403 228.49,72.017 211.774,72.892 201.273,85.312 200.126,63.458 186.598,64.166 	"/>
	<path fill-rule="evenodd" clip-rule="evenodd" d="M490.521,84.993c-4.429,0-8.012,3.517-8.012,7.947s3.583,8.012,8.012,8.012
		s7.946-3.582,7.946-8.012S494.95,84.993,490.521,84.993z"/>
	<path fill-rule="evenodd" clip-rule="evenodd" d="M521.64,100.364h13.547V65.973H521.64V100.364z M528.413,54.379
		c-2.541,0-4.56,2.019-4.56,4.559c0,2.541,2.019,4.56,4.56,4.56c2.54,0,4.56-2.02,4.56-4.56
		C532.973,56.398,530.953,54.379,528.413,54.379z"/>
	<path fill-rule="evenodd" clip-rule="evenodd" d="M570.8,86.752c-2.801,1.823-5.342,2.67-7.62,2.67
		c-2.801,0-4.039-1.368-4.039-4.56V74.571h10.877v-8.598h-10.877V55.682h-3.061l-16.479,14.656v4.233h5.993v13.614
		c0,4.689,0.715,7.165,2.67,9.119c2.475,2.476,6.578,3.647,10.682,3.647c4.56,0,8.338-1.237,11.854-3.843V86.752z"/>
</g>
</svg>
