<svg xmlns="http://www.w3.org/2000/svg" viewBox="0 0 623.62 255.12"><defs><style>.cls-1{fill:#fff;}.cls-2{fill:#f04937;}.cls-3{fill:#3b3b3c;}</style></defs><title>blackfire</title><g id="BG"><rect class="cls-1" width="623.62" height="255.12"/></g><g id="Logo"><circle class="cls-2" cx="96.34" cy="127.56" r="70.72" transform="translate(-61.98 105.48) rotate(-45)"/><path class="cls-1" d="M83.79,175.46a1.53,1.53,0,0,1-1.48,2.38c-23.2-3.2-39.74-37.35-18.12-57.22,23.88-21.94,29.33-35,26.46-41.84A1,1,0,0,1,92,77.38c7.87,3.89,25.87,15.83,19.91,41.54,0,0,10.4-.2,10.72-9.85a1.07,1.07,0,0,1,1.8-.75c4.52,4.16,15.4,15.92,13.95,31.67-2.07,22.48-17.73,34.29-29.33,37.1a1.32,1.32,0,0,1-1.42-2c3.26-4.89,9.16-15-3.1-24.92-9.26-6.86-10.38-14.09-9-18.56a.78.78,0,0,0-1.23-.85C70.6,150.92,79.08,168.81,83.79,175.46Z"/><path class="cls-3" d="M240.24,136.94c0,16.55-8,24.37-21.74,24.37-12.28,0-21-6.81-21-20.31V99.09a5.48,5.48,0,1,1,11,0v17.44c2-2,6.3-4.06,11.17-4.06C232.42,112.47,240.24,120.39,240.24,136.94ZM208.45,141c0,7,4.17,11,10.05,11,7,0,10.87-5.08,10.87-15s-4-15.13-10.87-15.13c-6.09,0-10.05,5.18-10.05,5.18Z"/><path class="cls-3" d="M256.79,99.09v49.73a2,2,0,0,0,1.92,1.83,5.08,5.08,0,1,1,0,10.15c-7.92,0-12.89-4.47-12.89-13V99.09a5.49,5.49,0,0,1,11,0Z"/><path class="cls-3" d="M276,126.07a4.82,4.82,0,0,1-3.05,1,4.76,4.76,0,0,1-4.77-4.77,5,5,0,0,1,1.32-3.36c2.84-3.14,7.92-6.49,16.65-6.49,12.59,0,20.11,6.19,20.11,16.95v26a5.39,5.39,0,0,1-10.77,0c-2.74,4.37-7.21,5.89-13.3,5.89-9.95,0-16.55-6.2-16.55-15.33,0-9.45,7.61-14.32,16.45-14.32h13.3v-1.83c0-4.57-3.35-7.62-9.24-7.62C281.66,122.21,278.52,124.25,276,126.07Zm19.39,17v-2.84H283.49c-4.47,0-6.9,2.13-6.9,5.79,0,3.85,2.74,6.19,8.42,6.19C290.4,152.17,295.37,148.72,295.37,143Z"/><path class="cls-3" d="M333.75,112.47c9.34,0,14.73,4.67,16.55,7a4.9,4.9,0,0,1-3.75,8,4.9,4.9,0,0,1-3.76-1.72,11.58,11.58,0,0,0-9-4c-7.11,0-11,5.48-11,15,0,9.74,3.85,15.13,11,15.13,4.67,0,7.72-2.34,10.05-4.07a4.94,4.94,0,0,1,7.93,3.86,4.85,4.85,0,0,1-1.73,3.76,24.38,24.38,0,0,1-16.25,5.79c-13.81,0-22-7.92-22-24.47S319.94,112.47,333.75,112.47Z"/><path class="cls-3" d="M386.45,158.67l-15.13-20.31-3.25,2.54v14.62a5.28,5.28,0,0,1-5.48,5.28,5.23,5.23,0,0,1-5.48-5.28V98.89a5.23,5.23,0,0,1,5.48-5.28,5.28,5.28,0,0,1,5.48,5.28v29.92l18.38-14.42a5.4,5.4,0,0,1,3.56-1.32,5.25,5.25,0,0,1,5.28,5.29,5.34,5.34,0,0,1-2,4.16L380,132.67l14.93,19.6a5.48,5.48,0,0,1,1.12,3.25,5.25,5.25,0,0,1-5.28,5.28A5.2,5.2,0,0,1,386.45,158.67Z"/><path class="cls-3" d="M402.53,123a4.57,4.57,0,1,1,0-9.14h2.13V108.4C404.66,99,411,93,424.05,93a4.77,4.77,0,1,1,0,9.54c-5.58,0-8.42,3.15-8.42,7.62v3.76h6.8a4.57,4.57,0,0,1,0,9.14h-6.8v32.49a5.29,5.29,0,0,1-5.49,5.28,5.17,5.17,0,0,1-5.48-5.28V123Z"/><path class="cls-3" d="M432.07,105.42c0-4.55,2.28-6.54,6.34-6.54s6.43,2,6.43,6.54c0,3.86-2.27,6.24-6.43,6.24S432.07,109.28,432.07,105.42Zm11.82,49.9a5.49,5.49,0,0,1-11,0V120.25a5.49,5.49,0,0,1,11,0Z"/><path class="cls-3" d="M462.13,119.07c1.93-4,6.7-6.5,11-6.5a5.18,5.18,0,0,1,0,10.36c-7,0-11,4.46-11,11.27v21.12a5.48,5.48,0,0,1-11,0V118.56a5.48,5.48,0,1,1,11,0Z"/><path class="cls-3" d="M500.92,112.47c17.16,0,20.31,13.2,20.31,20.2,0,3.76,0,8.13-6.19,8.13H490c0,7.31,5.18,10.66,11.89,10.66a17.35,17.35,0,0,0,10.05-3.15,5.46,5.46,0,0,1,3.25-1.12,4.77,4.77,0,0,1,4.77,4.78,5,5,0,0,1-1.73,3.75c-1.72,1.63-7.1,5.59-16.34,5.59-14.12,0-22.85-7.62-22.85-24.58C479,121.2,487.11,112.47,500.92,112.47Zm-10.66,19.19h20.11c0-5-2.85-9.85-9.45-9.85C495,121.81,490.77,125.16,490.26,131.66Z"/><path class="cls-3" d="M526.86,156.83c0-3.38,1.84-4.92,4.81-4.92s4.81,1.54,4.81,4.92-1.84,4.81-4.81,4.81S526.86,160.21,526.86,156.83Z"/><path class="cls-3" d="M541.7,104.94c0-3,1.43-4.1,3.89-4.1s3.89,1.13,3.89,4.1a3.89,3.89,0,0,1-7.78,0Zm7.16,53.42a3.28,3.28,0,1,1-6.55,0V116.8a3.28,3.28,0,0,1,6.55,0Z"/><path class="cls-3" d="M598,137.48c0,16.79-8.19,24.67-21.5,24.67S555,154.27,555,137.48s8.29-24.57,21.49-24.57S598,120.69,598,137.48Zm-6.65,0c0-12.9-5.43-18.63-14.85-18.63s-14.84,5.73-14.84,18.63c0,13.1,5.42,18.73,14.84,18.73S591.35,150.58,591.35,137.48Z"/></g></svg>