<svg xmlns="http://www.w3.org/2000/svg" viewBox="0 0 623.62 255.12"><defs><style>.cls-1{fill:#2f2f2f;}.cls-2{fill:#fff;}</style></defs><title>caffeina1</title><g id="BG"><rect class="cls-1" width="623.62" height="255.12"/></g><g id="Logo"><g id="Blog"><g id="Blog-Index"><g id="Header"><g id="Top"><g id="Logo-small"><g id="Logotipo"><path id="Fill-1" class="cls-2" d="M108.88,67.68,97,79.19q-12.14-13-27.3-13a29.11,29.11,0,0,0-21.58,8.9A30,30,0,0,0,39.33,97a32.64,32.64,0,0,0,3.89,16.11,27.92,27.92,0,0,0,11,11.05,31.54,31.54,0,0,0,15.78,4,32,32,0,0,0,13.54-2.81q6.12-2.8,13.46-10.2l11.53,12.2q-9.9,9.81-18.7,13.61a50.54,50.54,0,0,1-20.11,3.79q-20.83,0-34.11-13.41T22.32,96.93a47.61,47.61,0,0,1,6-24.09,45.26,45.26,0,0,1,17.31-17,48.25,48.25,0,0,1,24.27-6.41A50.06,50.06,0,0,1,91.23,54.2a50.78,50.78,0,0,1,17.65,13.48"/><path id="Fill-2" class="cls-2" d="M148.86,51.74h17.25l34.37,90.71H182.8l-7-18.69H139.35l-7.27,18.69H114.41l34.45-90.71Zm8.73,24.05-12,31.14h23.91L157.59,75.79Z"/><path id="Fill-3" class="cls-2" d="M213.87,51.74h44.35V68.58H230.76V85h27.46v16.59H230.76v40.83H213.87V51.74"/><path id="Fill-4" class="cls-2" d="M273.58,51.74h44.35V68.58H290.48V85h27.45v16.59H290.48v40.83h-16.9V51.74"/><path id="Fill-5" class="cls-2" d="M333.12,51.74h48.77v16.9H350V85h31.89v16.59H350v23.87h31.89v17H333.12V51.74"/><path id="Fill-6" class="cls-2" d="M398.7,51.74h16.87v90.71H398.7Z"/><path id="Fill-7" class="cls-2" d="M432.61,51.74h16.32l38.23,59.69V51.74h17v90.71H487.81L449.62,82.94v59.51h-17V51.74"/><path id="Fill-8" class="cls-2" d="M549.68,51.74h17.25l34.37,90.71H583.61l-7-18.69H540.17l-7.27,18.69H515.22l34.46-90.71Zm8.73,24.05-12,31.14h23.91L558.41,75.79Z"/><path id="Fill-9" class="cls-2" d="M29.63,168.67h6.26v36.47H29.63Z"/><path id="Fill-10" class="cls-2" d="M76.64,194.07a16.9,16.9,0,0,1-3.92,5.81,18.73,18.73,0,0,1-6.06,3.85,20.55,20.55,0,0,1-7.72,1.41H45.54V168.67h13.4a21,21,0,0,1,7.72,1.38,18.36,18.36,0,0,1,6.06,3.83,17,17,0,0,1,3.92,5.78A18.43,18.43,0,0,1,78,186.85a18.65,18.65,0,0,1-1.39,7.22M70.51,182A12.08,12.08,0,0,0,68,178a11.62,11.62,0,0,0-3.94-2.62,13.73,13.73,0,0,0-5.15-.94H51.8v24.91h7.1a13.93,13.93,0,0,0,5.15-.92A11.34,11.34,0,0,0,68,195.88,11.79,11.79,0,0,0,70.51,192a14.31,14.31,0,0,0,0-10"/><path id="Fill-11" class="cls-2" d="M112.26,174.45H91.94v9.38h18v5.78h-18v9.75h20.58v5.78H85.68V168.67h26.58v5.78"/><path id="Fill-12" class="cls-2" d="M154.45,205.14h-6.67l-3.64-8.81h-17l-3.7,8.81H117l15.8-36.73h5.86l15.8,36.73Zm-18.83-29.07-6.16,14.59h12.37l-6.21-14.59Z"/><path id="Fill-13" class="cls-2" d="M165.69,180.08a3.88,3.88,0,0,0,1.32,1.46,10.35,10.35,0,0,0,2.62,1.25c1.11.38,2.53.78,4.25,1.2a41.19,41.19,0,0,1,5,1.61,12.47,12.47,0,0,1,3.63,2.16,8.75,8.75,0,0,1,2.19,3,10,10,0,0,1,.74,4,10.9,10.9,0,0,1-.94,4.64,9.76,9.76,0,0,1-2.62,3.43,11.4,11.4,0,0,1-4,2.14,17.34,17.34,0,0,1-5.18.73,22.43,22.43,0,0,1-7.95-1.43,21.56,21.56,0,0,1-7-4.41l3.8-4.58a22,22,0,0,0,5.28,3.52,14.48,14.48,0,0,0,6.06,1.22,7.67,7.67,0,0,0,4.64-1.25,4,4,0,0,0,1.72-3.39,4.5,4.5,0,0,0-.33-1.77,3.64,3.64,0,0,0-1.24-1.43,10.3,10.3,0,0,0-2.47-1.22,37.2,37.2,0,0,0-4.09-1.2,43.57,43.57,0,0,1-5.12-1.51,12.9,12.9,0,0,1-3.75-2.09,8.15,8.15,0,0,1-2.32-3,10.51,10.51,0,0,1-.8-4.32,10.12,10.12,0,0,1,.92-4.35,10,10,0,0,1,2.52-3.36,11.17,11.17,0,0,1,3.86-2.17,15.48,15.48,0,0,1,4.92-.75,20.39,20.39,0,0,1,7.11,1.17,21.21,21.21,0,0,1,5.93,3.41l-3.39,4.85a22,22,0,0,0-4.88-2.79,13.08,13.08,0,0,0-4.87-1,6.55,6.55,0,0,0-4.32,1.28,3.9,3.9,0,0,0-1.54,3.09,4.47,4.47,0,0,0,.36,1.88"/><path id="Fill-14" class="cls-2" d="M243.61,168.67h6.26v36.47h-5.28l-19.77-25.95v25.95h-6.26V168.67h5.84l19.21,25.22V168.67"/><path id="Fill-15" class="cls-2" d="M285.7,174.45H265.37v9.38h18v5.78h-18v9.75H286v5.78H259.11V168.67H285.7v5.78"/><path id="Fill-16" class="cls-2" d="M319,168.67h6.82L310.9,205.4h-5.55l-14.93-36.73h7l10.83,28,10.78-28"/><path id="Fill-17" class="cls-2" d="M358.58,174.45H338.25v9.38h18v5.78h-18v9.75h20.58v5.78H332V168.67h26.59v5.78"/><path id="Fill-18" class="cls-2" d="M389.42,205.14l-8.85-12.71h-7.93v12.71h-6.26V168.67h16a18,18,0,0,1,5.57.81,12.09,12.09,0,0,1,4.21,2.29,9.78,9.78,0,0,1,2.64,3.65,13.06,13.06,0,0,1,.28,8.91,10.33,10.33,0,0,1-1.77,3.17,10.47,10.47,0,0,1-2.69,2.35,13.09,13.09,0,0,1-3.46,1.48l9.7,13.81ZM387.36,176a8.67,8.67,0,0,0-5.5-1.55h-9.22v12.3h9.27a8.15,8.15,0,0,0,5.4-1.68,5.54,5.54,0,0,0,2-4.5,5.45,5.45,0,0,0-2-4.57Z"/><path id="Fill-19" class="cls-2" d="M434.8,180.08a3.76,3.76,0,0,0,1.31,1.46,10.35,10.35,0,0,0,2.62,1.25c1.12.38,2.53.78,4.25,1.2a40.63,40.63,0,0,1,5,1.61,12.47,12.47,0,0,1,3.63,2.16,8.75,8.75,0,0,1,2.19,3,9.8,9.8,0,0,1,.75,4,10.9,10.9,0,0,1-.95,4.64,9.64,9.64,0,0,1-2.62,3.43,11.35,11.35,0,0,1-4,2.14,17.41,17.41,0,0,1-5.19.73,22.43,22.43,0,0,1-7.95-1.43,21.56,21.56,0,0,1-7-4.41l3.8-4.58a22,22,0,0,0,5.28,3.52,14.48,14.48,0,0,0,6.06,1.22,7.67,7.67,0,0,0,4.64-1.25,4,4,0,0,0,1.72-3.39,4.5,4.5,0,0,0-.33-1.77,3.49,3.49,0,0,0-1.24-1.43,10.11,10.11,0,0,0-2.47-1.22,37.2,37.2,0,0,0-4.09-1.2,44.15,44.15,0,0,1-5.12-1.51,12.9,12.9,0,0,1-3.75-2.09,8.15,8.15,0,0,1-2.32-3,10.51,10.51,0,0,1-.8-4.32,10.12,10.12,0,0,1,.92-4.35,10,10,0,0,1,2.52-3.36,11.17,11.17,0,0,1,3.86-2.17,15.48,15.48,0,0,1,4.92-.75,20.39,20.39,0,0,1,7.11,1.17,21.21,21.21,0,0,1,5.93,3.41L450,177.58a22,22,0,0,0-4.88-2.79,13.08,13.08,0,0,0-4.87-1,6.5,6.5,0,0,0-4.31,1.28,3.87,3.87,0,0,0-1.54,3.09,4.32,4.32,0,0,0,.36,1.88"/><path id="Fill-20" class="cls-2" d="M462,168.67h6.26v30.69h18.89v5.78H462V168.67"/><path id="Fill-21" class="cls-2" d="M520.36,174.45H500v9.38h18v5.78H500v9.75h20.58v5.78H493.77V168.67h26.59v5.78"/><path id="Fill-22" class="cls-2" d="M554.75,174.45H534.42v9.38h18v5.78h-18v9.75H555v5.78H528.16V168.67h26.59v5.78"/><path id="Fill-23" class="cls-2" d="M589.23,186.33a11.1,11.1,0,0,1-3.08,3.91,13.83,13.83,0,0,1-4.58,2.37,18.93,18.93,0,0,1-5.61.81h-7.15v11.72h-6.26V168.67h14.16a17.78,17.78,0,0,1,5.68.86A12.09,12.09,0,0,1,586.7,172a11.1,11.1,0,0,1,2.72,3.86,12.88,12.88,0,0,1,1,5,12.24,12.24,0,0,1-1.14,5.42m-7.39-10.23a9,9,0,0,0-5.67-1.65h-7.36v13.19h7.36a8.41,8.41,0,0,0,5.69-1.81A6,6,0,0,0,584,181a5.88,5.88,0,0,0-2.11-4.94"/><path id="Fill-24" class="cls-2" d="M591.44,199.13h5.74v6h-5.74Z"/></g></g></g></g></g></g></g></svg>