<?xml version="1.0" encoding="UTF-8" standalone="no"?>
<svg
   xmlns:dc="http://purl.org/dc/elements/1.1/"
   xmlns:cc="http://creativecommons.org/ns#"
   xmlns:rdf="http://www.w3.org/1999/02/22-rdf-syntax-ns#"
   xmlns:svg="http://www.w3.org/2000/svg"
   xmlns="http://www.w3.org/2000/svg"
   viewBox="0 0 600 199.98"
   height="199.98"
   width="600"
   xml:space="preserve"
   version="1.1"
   id="svg2"><metadata
     id="metadata8"><rdf:RDF><cc:Work
         rdf:about=""><dc:format>image/svg+xml</dc:format><dc:type
           rdf:resource="http://purl.org/dc/dcmitype/StillImage" /></cc:Work></rdf:RDF></metadata><defs
     id="defs6"><clipPath
       id="clipPath16"
       clipPathUnits="userSpaceOnUse"><path
         id="path18"
         d="m 0,159.984 480,0 L 480,0 0,0 0,159.984 Z" /></clipPath></defs><g
     transform="matrix(1.25,0,0,-1.25,0,199.98)"
     id="g10"><g
       id="g12"><g
         clip-path="url(#clipPath16)"
         id="g14"><g
           transform="translate(0.192,-0.336)"
           id="g20"><path
             id="path22"
             style="fill:#fbfbfa;fill-opacity:1;fill-rule:nonzero;stroke:none"
             d="m 0,0 c 0,53.376 0,106.752 0,160.128 160,0 320,0 480,0 C 480,106.752 480,53.376 480,0 320,0 160,0 0,0" /></g><g
           transform="translate(114.0786,98.7601)"
           id="g24"><path
             id="path26"
             style="fill:#00a495;fill-opacity:1;fill-rule:nonzero;stroke:none"
             d="m 0,0 c -1.513,2.345 -3.274,4.496 -5.175,6.533 -4.172,4.473 -8.947,8.207 -14.121,11.444 -3.42,2.14 -6.978,4.021 -10.67,5.646 -0.035,0.172 0.003,0.267 0.203,0.193 1.735,-0.3 3.427,-0.774 5.108,-1.285 10.32,-3.137 19.176,-8.663 26.666,-16.4 3.327,-3.437 6.259,-7.182 8.653,-11.334 0.094,-0.163 0.158,-0.35 0.379,-0.449 0.17,0.263 0.344,0.529 0.516,0.796 0.939,1.463 2.04,2.788 3.381,3.9 3.149,2.613 6.8,3.581 10.827,3.208 1.35,-0.125 2.605,-0.622 3.793,-1.275 1.995,-1.093 3.624,-2.614 5.066,-4.349 0.716,-0.862 1.375,-1.766 1.929,-2.743 0.16,-0.28 0.13,-0.381 -0.128,-0.553 -0.133,-0.089 -0.273,-0.166 -0.41,-0.248 -6.385,-3.819 -11.824,-8.717 -16.516,-14.468 -1.76,-2.158 -3.39,-4.412 -4.901,-6.751 -0.12,-0.185 -0.203,-0.401 -0.405,-0.524 -0.389,-0.23 -0.747,-0.022 -1.101,0.093 -7.686,2.494 -15.249,5.322 -22.716,8.41 -0.384,0.158 -0.756,0.34 -1.117,0.547 -0.524,0.475 -1.156,0.857 -1.393,1.584 -0.283,0.346 -0.549,0.706 -0.849,1.036 -4.21,4.62 -8.809,8.815 -13.782,12.601 -5.535,4.213 -11.411,7.869 -17.679,10.892 -0.115,0.055 -0.223,0.123 -0.334,0.186 -0.013,0.363 0.193,0.303 0.414,0.215 1.742,-0.415 3.435,-0.992 5.127,-1.571 8.607,-2.944 16.686,-6.938 24.122,-12.201 1.749,-1.238 3.422,-2.574 5.084,-3.924 0.138,-0.066 0.294,-0.096 0.401,-0.207 -0.003,0.005 0.06,-0.034 0.06,-0.034 0,0 -0.038,0.064 -0.044,0.068 -0.108,0.118 -0.132,0.268 -0.188,0.402 -0.977,1.464 -2.111,2.804 -3.285,4.11 -2.937,3.266 -6.247,6.116 -9.785,8.706 -5.011,3.67 -10.371,6.753 -15.964,9.439 -0.949,0.456 -1.902,0.902 -2.853,1.353 -0.017,0.368 0.204,0.263 0.403,0.202 1.623,-0.364 3.202,-0.88 4.782,-1.387 6.316,-2.025 12.405,-4.579 18.199,-7.82 4.506,-2.521 8.766,-5.392 12.641,-8.817 0.095,-0.085 0.202,-0.156 0.303,-0.234 0.024,-0.075 0.072,-0.122 0.15,-0.137 l 0.329,-0.286 c 0.165,-0.031 0.279,-0.133 0.369,-0.268 0.094,-0.115 0.198,-0.22 0.292,-0.315 -0.01,0.01 -0.003,0.013 -0.011,0.021 -0.092,0.095 -0.172,0.185 -0.239,0.287 -0.064,0.098 -0.122,0.197 -0.123,0.318 -0.034,0.059 -0.068,0.118 -0.101,0.177 -0.025,0.078 -0.073,0.14 -0.141,0.186 l -0.006,0.009 c -0.057,0.073 -0.125,0.138 -0.165,0.224 -0.844,1.324 -1.859,2.515 -2.886,3.695 -2.886,3.314 -6.137,6.239 -9.588,8.947 -4.989,3.915 -10.324,7.3 -15.883,10.341 -0.28,0.153 -0.559,0.309 -0.838,0.464 -0.074,0.032 -0.143,0.074 -0.204,0.127 l -0.009,0.004 c -0.031,0.188 0.023,0.288 0.234,0.226 0.058,0.002 0.112,-0.013 0.162,-0.044 0.117,-0.102 0.286,-0.068 0.408,-0.156 1.439,-0.429 2.828,-0.999 4.225,-1.546 6.11,-2.392 12.013,-5.209 17.605,-8.655 3.79,-2.336 7.399,-4.918 10.667,-7.955 0.304,-0.282 0.604,-0.571 0.906,-0.856 0.154,-0.093 0.329,-0.161 0.415,-0.327 C 0.281,-0.605 0.289,-0.601 0.22,-0.5 0.098,-0.35 0.052,-0.174 0,0" /></g><g
           transform="translate(290.8533,48.0251)"
           id="g28"><path
             id="path30"
             style="fill:#8f979b;fill-opacity:1;fill-rule:nonzero;stroke:none"
             d="m 0,0 c -0.483,1.355 -0.775,2.753 -0.941,4.18 -0.123,1.049 -0.194,2.097 -0.185,3.154 0.042,4.789 1.494,9.114 4.324,12.96 1.92,2.611 4.344,4.67 7.193,6.227 2.407,1.316 4.962,2.196 7.664,2.636 3.947,0.642 7.758,0.171 11.438,-1.418 3.166,-1.368 5.887,-3.341 8.15,-5.93 2.678,-3.064 4.523,-6.562 5.323,-10.578 C 43.229,9.908 43.297,8.568 43.269,7.224 43.237,5.667 42.13,4.537 40.562,4.446 40.211,4.426 39.859,4.438 39.507,4.438 28.348,4.438 17.188,4.438 6.028,4.437 5.709,4.437 5.389,4.431 5.071,4.411 4.927,4.402 4.843,4.291 4.849,4.15 4.855,3.992 4.888,3.835 4.917,3.679 5.13,2.543 5.548,1.472 5.94,0.392 5.392,-0.05 4.714,0.115 4.098,0.031 2.739,-0.156 1.367,-0.142 0,0" /></g><g
           transform="translate(237.7106,49.9684)"
           id="g32"><path
             id="path34"
             style="fill:#6b6c6c;fill-opacity:1;fill-rule:nonzero;stroke:none"
             d="m 0,0 c 0.021,-0.462 -0.18,-0.873 -0.32,-1.294 -1.202,-3.604 -3.307,-6.61 -6.095,-9.159 -1.064,-0.973 -2.201,-1.853 -3.398,-2.657 -2.81,-1.89 -5.921,-2.978 -9.262,-3.423 -2.198,-0.293 -4.405,-0.271 -6.596,0.054 -1.81,0.268 -3.541,0.831 -5.206,1.593 -2.432,1.114 -4.604,2.623 -6.64,4.343 -0.186,0.157 -0.33,0.387 -0.645,0.434 -0.127,-0.242 -0.069,-0.498 -0.069,-0.737 -0.004,-7.037 -0.003,-14.073 -0.003,-21.109 0,-0.256 -0.006,-0.512 0,-0.768 0.022,-0.915 -0.399,-1.591 -1.135,-2.092 -0.645,-0.44 -1.373,-0.711 -2.131,-0.821 -0.807,-0.118 -1.515,0.216 -2.059,0.814 -0.71,0.78 -1.069,1.729 -1.177,2.773 -0.016,0.158 -0.003,0.32 -0.003,0.48 0,11.961 0,23.923 10e-4,35.884 0,0.288 0.011,0.576 0.018,0.863 0.077,0.401 0.302,0.643 0.726,0.576 1.922,-0.303 3.86,-0.513 5.743,-1.026 0.091,-0.024 0.16,-0.103 0.231,-0.166 0.267,-0.343 0.331,-0.762 0.384,-1.169 0.59,-4.482 3.031,-7.786 6.596,-10.366 2.705,-1.957 5.708,-2.795 9.076,-2.807 3.715,-0.013 7.007,0.929 9.879,3.265 1.992,1.619 3.423,3.69 4.602,5.95 0.246,0.471 0.369,1.038 0.906,1.316 C -5.775,1.008 -4.992,0.7 -4.2,0.667 -3.117,0.62 -2.037,0.493 -0.959,0.378 -0.616,0.342 -0.255,0.288 0,0" /></g><g
           transform="translate(241.5745,49.5676)"
           id="g36"><path
             id="path38"
             style="fill:#8f979b;fill-opacity:1;fill-rule:nonzero;stroke:none"
             d="m 0,0 c -0.003,2.143 -0.083,4.289 0.01,6.427 0.142,3.242 0.721,6.405 2.048,9.402 0.822,1.858 1.87,3.569 3.194,5.103 1.858,2.153 4.053,3.896 6.553,5.251 0.702,0.381 1.417,0.741 2.142,1.077 1.424,0.659 2.877,1.212 4.452,1.435 1.455,0.206 2.905,0.468 4.374,0.496 3.217,0.063 6.279,-0.654 9.193,-1.997 2.104,-0.97 4.032,-2.226 5.76,-3.769 3.684,-3.287 6.132,-7.327 7.28,-12.137 0.357,-1.497 0.48,-3.022 0.508,-4.563 0.05,-2.779 -0.367,-5.475 -1.273,-8.099 -0.02,-0.057 -0.075,-0.101 -0.114,-0.151 -2.364,-0.45 -4.742,-0.352 -7.12,-0.164 -0.517,0.369 -0.133,0.739 0.02,1.087 2.498,5.665 2.357,11.157 -1.349,16.254 -2.602,3.578 -6.114,5.991 -10.593,6.47 C 18.619,22.813 13.545,21.227 9.437,14.893 6.524,10.4 6.252,5.63 7.863,0.64 7.994,0.235 8.428,-0.205 7.898,-0.647 5.42,-0.755 2.973,-0.324 0.507,-0.233 0.315,-0.226 0.138,-0.146 0,0" /></g><g
           transform="translate(241.5745,49.5676)"
           id="g40"><path
             id="path42"
             style="fill:#6b6c6c;fill-opacity:1;fill-rule:nonzero;stroke:none"
             d="m 0,0 c 0.919,0.013 1.841,0.094 2.746,-0.145 0.03,-0.008 0.063,-0.012 0.095,-0.01 1.367,0.063 2.714,-0.251 4.08,-0.219 0.382,0.009 0.763,0.002 1.12,-0.167 C 8.49,-0.556 8.56,-0.957 8.736,-1.24 11.379,-5.479 15,-8.471 20.015,-9.197 c 5.217,-0.755 10.067,0.224 13.89,4.257 0.879,0.928 1.645,1.951 2.35,3.019 0.133,0.201 0.242,0.472 0.574,0.408 1.658,0.004 3.316,0.007 4.974,0.014 0.444,0.002 0.885,-0.002 1.328,0.105 0.327,0.078 0.696,0.148 0.996,-0.131 -0.275,-1.027 -0.776,-1.956 -1.29,-2.875 -1.865,-3.334 -4.521,-5.922 -7.624,-8.1 -2.723,-1.911 -5.755,-3.066 -9.01,-3.561 -5.585,-0.85 -10.809,0.166 -15.557,3.332 -1.226,0.817 -2.397,1.703 -3.523,2.65 -0.162,0.136 -0.279,0.354 -0.584,0.35 C 6.423,-9.95 6.482,-10.206 6.481,-10.445 6.477,-17.48 6.478,-24.515 6.478,-31.55 c 0,-0.255 -0.006,-0.511 0,-0.767 0.021,-0.873 -0.357,-1.539 -1.053,-2.039 -0.689,-0.495 -1.478,-0.793 -2.302,-0.889 -0.762,-0.089 -1.448,0.242 -1.966,0.818 -0.706,0.784 -1.074,1.727 -1.181,2.772 -0.016,0.158 -0.003,0.32 -0.003,0.479 0,10.105 0,20.21 0.001,30.314 0,0.287 0.017,0.575 0.026,0.862" /></g><g
           transform="translate(199.6712,54.3829)"
           id="g44"><path
             id="path46"
             style="fill:#8f979b;fill-opacity:1;fill-rule:nonzero;stroke:none"
             d="m 0,0 c -0.383,0.283 -0.859,0.233 -1.286,0.318 -1.308,0.258 -2.632,0.433 -3.948,0.644 -0.219,0.035 -0.44,0.073 -0.651,0.139 -0.369,0.114 -0.611,-0.036 -0.796,-0.337 -0.001,0.254 -0.018,0.509 -0.001,0.762 0.16,2.329 0.435,4.639 1.115,6.887 0.95,3.141 2.486,5.94 4.729,8.351 2.531,2.721 5.607,4.62 8.991,6.078 1.452,0.626 2.962,0.982 4.524,1.184 1.077,0.139 2.151,0.316 3.236,0.348 2.817,0.085 5.529,-0.454 8.149,-1.471 2.56,-0.994 4.866,-2.42 6.92,-4.232 3.7,-3.267 6.168,-7.297 7.322,-12.107 0.298,-1.243 0.498,-2.505 0.514,-3.791 0.02,-1.631 0.049,-3.263 -0.231,-4.878 -0.135,-0.779 -0.194,-1.58 -0.548,-2.309 -1.096,0.113 -2.193,0.227 -3.29,0.338 -0.189,0.019 -0.378,0.03 -0.568,0.036 -0.537,0.017 -1.068,0.034 -1.601,0.15 -0.394,0.085 -0.819,0.029 -1.23,0.035 -0.276,0.416 -0.009,0.804 0.082,1.189 0.743,3.173 0.862,6.344 -0.274,9.438 -1.859,5.064 -5.387,8.534 -10.557,10.032 -4.277,1.24 -8.544,0.974 -12.507,-1.346 C 5.329,13.839 3.454,11.405 1.931,8.653 0.759,6.532 0.248,4.259 0.257,1.845 0.259,1.228 0.454,0.562 0,0" /></g><g
           transform="translate(146.482,65.5332)"
           id="g48"><path
             id="path50"
             style="fill:#6b6c6c;fill-opacity:1;fill-rule:nonzero;stroke:none"
             d="m 0,0 c -1.303,-1.683 -2.327,-3.516 -2.944,-5.559 -2.832,-9.39 2.771,-18.663 11.778,-20.873 5.664,-1.39 10.759,0 15.154,3.862 0.192,0.169 0.37,0.355 0.566,0.518 1.276,1.061 3.173,0.794 4.169,-0.524 0.588,-0.778 0.693,-1.638 0.246,-2.525 -0.466,-0.922 -1.095,-1.726 -1.853,-2.427 -1.159,-1.071 -2.463,-1.932 -3.874,-2.629 -2.338,-1.156 -4.789,-1.969 -7.389,-2.24 -6.266,-0.655 -12.024,0.655 -17.027,4.624 -4.281,3.396 -6.925,7.81 -7.865,13.2 -0.928,5.317 -0.164,10.372 2.515,15.096 0.235,0.415 0.512,0.807 0.769,1.21 0.387,0.248 0.79,0.161 1.191,0.052 C -3.313,1.446 -2.07,1.078 -0.818,0.741 -0.444,0.64 0.022,0.57 0,0" /></g><g
           transform="translate(352.3464,54.4187)"
           id="g52"><path
             id="path54"
             style="fill:#8f979b;fill-opacity:1;fill-rule:nonzero;stroke:none"
             d="m 0,0 c -3.406,0.451 -6.721,1.223 -9.786,2.841 -1.134,0.599 -2.213,1.284 -3.111,2.22 -1.28,1.334 -2.018,2.921 -2.319,4.745 -0.287,1.741 -0.167,3.451 0.304,5.126 0.758,2.696 2.485,4.647 4.877,6.035 1.68,0.974 3.508,1.531 5.416,1.843 1.484,0.243 2.977,0.433 4.483,0.36 3.386,-0.163 6.659,-0.793 9.673,-2.443 1.017,-0.557 1.947,-1.231 2.734,-2.086 0.903,-0.983 1.369,-2.138 1.35,-3.488 -0.008,-0.561 -0.149,-1.077 -0.416,-1.558 -0.47,-0.845 -1.18,-1.29 -2.165,-1.364 -1.313,-0.097 -2.211,0.474 -2.815,1.589 -0.274,0.506 -0.53,1.015 -0.93,1.447 -0.833,0.9 -1.883,1.42 -3.028,1.768 -1.32,0.4 -2.668,0.646 -4.056,0.644 -1.439,-0.003 -2.879,0.03 -4.303,-0.243 -1.71,-0.329 -3.224,-1.018 -4.376,-2.377 -1.046,-1.234 -1.325,-2.674 -1.091,-4.224 0.105,-0.704 0.464,-1.316 0.968,-1.841 0.977,-1.018 2.176,-1.662 3.487,-2.13 C -3.835,6.411 -2.515,6.159 -1.196,5.92 1.195,5.486 3.573,5.007 5.862,4.17 6.671,3.874 7.465,3.532 8.254,3.183 8.658,3.003 9.066,2.812 9.384,2.485 9.359,1.944 8.886,1.972 8.56,1.896 5.804,1.258 3.09,0.423 0.264,0.11 0.17,0.099 0.086,0.042 0,0" /></g><g
           transform="translate(352.3464,54.4187)"
           id="g56"><path
             id="path58"
             style="fill:#6b6c6c;fill-opacity:1;fill-rule:nonzero;stroke:none"
             d="M 0,0 C 0.109,0.223 0.299,0.297 0.535,0.342 3.405,0.886 6.238,1.598 9.076,2.283 9.209,2.314 9.309,2.377 9.384,2.485 9.533,2.43 9.693,2.396 9.827,2.316 11.44,1.358 12.83,0.151 13.96,-1.355 c 1.439,-1.916 2.086,-4.09 2.076,-6.457 -0.016,-3.798 -1.492,-6.955 -4.323,-9.471 -1.774,-1.577 -3.855,-2.606 -6.116,-3.291 -2.542,-0.769 -5.142,-0.956 -7.781,-0.802 -2.29,0.134 -4.489,0.641 -6.58,1.579 -2.22,0.995 -4.17,2.357 -5.677,4.301 -0.87,1.123 -1.519,2.361 -1.989,3.699 -0.313,0.89 -0.295,1.764 0.108,2.611 0.797,1.675 2.794,2.166 4.295,1.069 0.419,-0.306 0.758,-0.688 1.023,-1.132 0.114,-0.191 0.217,-0.392 0.304,-0.597 0.946,-2.241 2.607,-3.752 4.805,-4.717 2.09,-0.918 4.267,-1.277 6.548,-1.102 1.575,0.121 3.101,0.409 4.563,1.016 0.92,0.382 1.797,0.846 2.566,1.48 2.056,1.695 2.844,3.873 2.386,6.492 -0.206,1.178 -0.854,2.123 -1.69,2.947 -0.55,0.541 -1.172,0.989 -1.829,1.392 -1.682,1.029 -3.51,1.679 -5.425,2.104 C 0.818,-0.144 0.408,-0.077 0,0" /></g><g
           transform="translate(378.0206,43.6047)"
           id="g60"><path
             id="path62"
             style="fill:#8f979b;fill-opacity:1;fill-rule:nonzero;stroke:none"
             d="m 0,0 c -0.123,0.162 -0.14,0.354 -0.146,0.546 -0.014,0.448 -0.032,0.896 -0.032,1.344 -0.003,5.215 -0.006,10.43 0,15.646 0.002,2.207 0.027,4.414 0.037,6.622 0.006,1.146 0.055,1.081 -1.115,1.072 -1.28,-0.01 -2.559,-0.04 -3.839,-0.056 -1.306,-0.017 -2.584,0.917 -2.977,2.152 -0.13,0.408 -0.183,0.806 -0.04,1.22 0.104,0.302 0.16,0.623 0.29,0.911 0.54,1.197 1.365,1.763 2.92,1.705 1.408,-0.053 2.814,-0.04 4.221,-0.046 0.475,-0.002 0.53,0.066 0.537,0.578 0.011,0.8 0.004,1.6 0.004,2.399 0,3.072 0.008,6.144 -0.005,9.215 -0.004,0.748 0.128,1.465 0.371,2.161 0.115,0.329 0.275,0.65 0.467,0.941 0.291,0.441 0.704,0.752 1.238,0.834 1.05,0.161 2.042,-0.02 2.939,-0.603 0.601,-0.389 0.954,-0.933 0.952,-1.674 -0.002,-0.288 0.005,-0.576 0.005,-0.864 0,-3.967 0,-7.935 0,-11.902 0,-1.178 -0.059,-1.09 1.094,-1.091 1.568,-10e-4 3.136,-0.007 4.704,0.005 0.51,0.003 1.029,0.009 1.528,0.099 1.005,0.182 1.755,-0.22 2.346,-0.963 0.422,-0.53 0.676,-1.167 0.821,-1.825 0.152,-0.69 -0.011,-1.341 -0.446,-1.9 -0.316,-0.407 -0.7,-0.741 -1.152,-1.001 -0.457,-0.262 -0.922,-0.396 -1.46,-0.365 -2.141,0.123 -4.286,0.058 -6.429,0.073 -1.017,0.006 -1.008,0.011 -1.008,-1 0,-1.215 -0.013,-2.43 -0.02,-3.646 C 5.243,19.905 4.388,19.753 3.643,19.409 2.861,19.047 2.057,18.726 1.242,18.446 0.503,18.192 0.313,17.684 0.317,16.971 0.329,14.352 0.323,11.732 0.322,9.112 0.321,6.525 0.328,3.937 0.315,1.349 0.313,0.883 0.412,0.377 0,0" /></g><g
           transform="translate(290.8533,48.0251)"
           id="g64"><path
             id="path66"
             style="fill:#6b6c6c;fill-opacity:1;fill-rule:nonzero;stroke:none"
             d="M 0,0 C 0.121,0.18 0.306,0.211 0.503,0.213 0.949,0.216 1.396,0.212 1.842,0.224 2.7,0.248 3.556,0.195 4.413,0.363 4.905,0.46 5.43,0.388 5.94,0.392 c 0.139,-0.251 0.281,-0.5 0.418,-0.753 2.665,-4.902 6.751,-7.9 12.247,-8.759 5.011,-0.784 9.497,0.597 13.368,3.902 0.316,0.27 0.617,0.557 0.933,0.827 0.984,0.84 2.98,0.917 4.089,-0.584 0.687,-0.93 0.737,-2.621 -0.217,-3.642 -0.986,-1.054 -2.017,-2.051 -3.189,-2.899 -2.003,-1.449 -4.244,-2.335 -6.645,-2.854 -2.423,-0.523 -4.877,-0.694 -7.344,-0.549 C 11.162,-14.423 3.184,-9.178 0.061,-0.281 0.03,-0.191 0.02,-0.094 0,0" /></g><g
           transform="translate(103.3049,79.3497)"
           id="g68"><path
             id="path70"
             style="fill:#298a7e;fill-opacity:1;fill-rule:nonzero;stroke:none"
             d="m 0,0 c 0.943,-0.381 1.89,-0.752 2.828,-1.144 2.613,-1.093 5.255,-2.112 7.903,-3.116 2.292,-0.869 4.604,-1.681 6.911,-2.507 2.429,-0.87 4.883,-1.66 7.327,-2.481 -0.121,-0.223 -0.231,-0.452 -0.363,-0.667 -3.305,-5.372 -6.038,-11.012 -7.996,-17.017 -0.04,-0.121 -0.076,-0.243 -0.122,-0.362 -0.061,-0.159 -0.191,-0.173 -0.373,-0.024 -0.07,0.057 -0.109,0.15 -0.163,0.227 -1.422,3.51 -2.929,6.982 -4.769,10.3 -0.605,1.263 -1.349,2.447 -2.079,3.64 -0.27,0.545 -0.617,1.047 -0.906,1.58 -0.048,0.067 -0.092,0.138 -0.136,0.207 -0.047,0.066 -0.088,0.136 -0.128,0.207 -0.061,0.103 -0.121,0.207 -0.191,0.307 -0.054,0.065 -0.102,0.133 -0.151,0.202 -0.4,0.589 -0.788,1.184 -1.198,1.765 C 6.035,-8.296 5.642,-7.732 5.249,-7.168 4.83,-6.517 4.317,-5.935 3.887,-5.293 3.63,-4.835 3.248,-4.47 2.949,-4.043 2.826,-3.863 2.767,-3.66 2.737,-3.447 2.505,-2.991 2.042,-2.814 1.652,-2.548 1.391,-1.845 0.774,-1.403 0.369,-0.805 0.201,-0.557 -0.14,-0.389 0,0" /></g><g
           transform="translate(378.0206,43.6047)"
           id="g72"><path
             id="path74"
             style="fill:#6b6c6c;fill-opacity:1;fill-rule:nonzero;stroke:none"
             d="m 0,0 c 0.006,0.478 0.017,0.956 0.017,1.434 0,5.334 -0.003,10.669 -0.004,16.003 0,0.16 0.004,0.32 0.01,0.479 0.009,0.251 0.14,0.413 0.37,0.506 1.773,0.716 3.545,1.434 5.318,2.151 0.028,0.011 0.062,0.01 0.094,0.014 0.015,-0.35 0.043,-0.7 0.043,-1.051 C 5.85,14.07 5.847,8.605 5.852,3.139 5.853,2.051 5.926,0.968 6.17,-0.097 c 0.208,-0.912 0.554,-1.764 1.115,-2.522 0.506,-0.686 1.154,-1.192 1.922,-1.542 0.229,-0.105 0.481,-0.197 0.728,-0.215 1.37,-0.098 2.734,-0.296 4.112,-0.255 0.128,0.004 0.256,-0.004 0.384,0.001 1.64,0.067 2.331,-0.705 2.837,-2.065 0.458,-1.229 0.031,-2.251 -0.75,-3.176 -0.338,-0.401 -0.804,-0.658 -1.334,-0.68 -2.011,-0.082 -4.029,-0.209 -6.024,0.13 -2.534,0.43 -4.562,1.749 -6.198,3.704 C 1.991,-5.556 1.219,-4.27 0.615,-2.889 0.215,-1.975 0.05,-0.996 0,0" /></g><g
           transform="translate(146.482,65.5332)"
           id="g76"><path
             id="path78"
             style="fill:#8f979b;fill-opacity:1;fill-rule:nonzero;stroke:none"
             d="M 0,0 C -0.089,0.234 -0.279,0.32 -0.508,0.382 -1.396,0.623 -2.28,0.878 -3.167,1.126 -3.778,1.297 -4.388,1.474 -5.003,1.629 -5.247,1.691 -5.504,1.7 -5.755,1.732 c 1.034,1.672 2.336,3.118 3.81,4.401 2.565,2.235 5.496,3.826 8.761,4.787 1.318,0.387 2.659,0.662 4.029,0.809 0.699,0.075 1.394,0.154 2.099,0.165 2.589,0.04 5.086,-0.419 7.472,-1.418 C 22.307,9.685 24.122,8.749 25.743,7.471 26.574,6.815 27.329,6.082 28.011,5.274 28.196,5.055 28.354,4.812 28.514,4.573 29.006,3.844 29.248,3.076 28.802,2.235 28.312,1.312 27.522,0.837 26.491,0.76 25.715,0.702 25.057,0.982 24.476,1.486 23.386,2.431 22.219,3.268 20.948,3.954 18.934,5.041 16.818,5.758 14.516,5.988 9.99,6.44 5.993,5.197 2.438,2.425 1.53,1.717 0.755,0.866 0,0" /></g><g
           transform="translate(186.9778,56.673)"
           id="g80"><path
             id="path82"
             style="fill:#6b6c6c;fill-opacity:1;fill-rule:nonzero;stroke:none"
             d="m 0,0 c 0.017,-0.318 0.047,-0.637 0.047,-0.955 0.003,-6.46 0.003,-12.92 0.002,-19.38 0,-0.192 -0.006,-0.384 0,-0.576 0.037,-1.3 -0.99,-2.42 -2.07,-2.682 -1.397,-0.34 -2.694,0.222 -3.334,1.449 -0.101,0.194 -0.14,0.42 -0.208,0.631 -0.118,0.277 -0.065,0.568 -0.066,0.852 -0.003,6.9 -0.002,13.799 -0.001,20.698 0,1.123 0.119,1.242 1.202,1.042 C -3.329,0.875 -2.226,0.692 -1.131,0.465 -0.727,0.381 -0.306,0.329 0,0" /></g><g
           transform="translate(186.9778,56.673)"
           id="g84"><path
             id="path86"
             style="fill:#8f979b;fill-opacity:1;fill-rule:nonzero;stroke:none"
             d="M 0,0 C -0.552,-0.048 -1.07,0.153 -1.602,0.239 -2.761,0.429 -3.91,0.683 -5.064,0.909 -5.406,0.976 -5.518,0.884 -5.535,0.512 -5.547,0.257 -5.541,0.001 -5.541,-0.254 c 0.002,-6.959 0.004,-13.919 0.005,-20.878 0,-0.127 -0.017,-0.254 -0.027,-0.381 -0.113,0.125 -0.154,0.278 -0.157,0.441 -0.007,0.319 -0.01,0.639 -0.01,0.959 -10e-4,6.49 -0.006,12.98 0.001,19.471 0.006,6.106 0.026,12.212 0.032,18.319 0,0.485 0.033,0.962 0.198,1.415 0.458,1.253 1.516,2.106 3.282,1.848 1.366,-0.2 2.307,-1.626 2.256,-2.623 C 0.03,18.126 0.042,17.933 0.042,17.742 0.042,12.114 0.043,6.487 0.041,0.86 0.04,0.574 0.014,0.287 0,0" /></g><g
           transform="translate(180.4381,87.9997)"
           id="g88"><path
             id="path90"
             style="fill:#8f979b;fill-opacity:1;fill-rule:nonzero;stroke:none"
             d="M 0,0 C -0.114,1.718 1.284,3.745 3.775,3.742 6.21,3.74 7.565,1.628 7.523,-0.075 7.469,-2.259 5.763,-3.831 3.708,-3.817 1.494,-3.802 -0.133,-1.912 0,0" /></g><g
           transform="translate(114.6456,62.6465)"
           id="g92"><path
             id="path94"
             style="fill:#324b45;fill-opacity:1;fill-rule:nonzero;stroke:none"
             d="m 0,0 c 0.677,-1.073 1.276,-2.19 1.806,-3.34 0.729,-1.584 1.431,-3.181 2.131,-4.778 0.268,-0.609 0.498,-1.234 0.75,-1.85 0.067,-0.162 0.078,-0.303 -0.076,-0.42 -2.542,2.415 -5.445,4.299 -8.582,5.841 -0.167,0.082 -0.318,0.197 -0.477,0.297 -0.094,0.141 -0.27,0.112 -0.394,0.191 L -4.846,-4.06 c -0.117,0.429 0.216,0.645 0.457,0.865 1.1,1.001 2.199,2.003 3.26,3.046 C -0.828,0.146 -0.447,0.505 0,0" /></g><g
           transform="translate(108.6911,72.2462)"
           id="g96"><path
             id="path98"
             style="fill:#2f5f54;fill-opacity:1;fill-rule:nonzero;stroke:none"
             d="m 0,0 c 0.504,-0.493 0.88,-1.073 1.164,-1.715 -0.96,-1.097 -2.061,-2.049 -3.112,-3.053 -1.997,-1.909 -4.177,-3.631 -5.944,-5.778 -0.844,0.131 -1.683,0.284 -2.494,0.563 -0.589,0.163 -0.462,0.482 -0.16,0.808 0.666,0.718 1.338,1.437 2.081,2.071 0.649,0.554 1.26,1.144 1.87,1.736 1.09,1.252 2.35,2.333 3.562,3.458 0.63,0.585 1.238,1.199 1.895,1.754 C -0.812,0.12 -0.455,0.513 0,0" /></g><g
           transform="translate(114.6456,62.6465)"
           id="g100"><path
             id="path102"
             style="fill:#31514a;fill-opacity:1;fill-rule:nonzero;stroke:none"
             d="M 0,0 C -0.252,0.137 -0.497,0.094 -0.707,-0.072 -0.929,-0.246 -1.141,-0.439 -1.33,-0.648 -2.22,-1.631 -3.269,-2.442 -4.225,-3.352 -4.451,-3.568 -4.64,-3.823 -4.846,-4.06 c -0.531,0.102 -0.986,0.393 -1.478,0.591 -0.784,0.314 -1.56,0.645 -2.34,0.969 -0.252,0.365 0.018,0.611 0.23,0.823 1.771,1.774 3.598,3.489 5.498,5.124 C -2.7,3.65 -2.45,3.89 -2.094,3.66 -1.719,3.387 -1.582,2.947 -1.372,2.569 -0.901,1.721 -0.299,0.94 0,0" /></g><g
           transform="translate(100.7993,61.7002)"
           id="g104"><path
             id="path106"
             style="fill:#305a51;fill-opacity:1;fill-rule:nonzero;stroke:none"
             d="M 0,0 C -0.097,0.18 -0.127,0.34 0.047,0.51 0.683,1.133 1.3,1.776 1.94,2.395 3.08,3.497 4.327,4.486 5.398,5.663 6.337,6.28 7.048,7.146 7.839,7.923 8.206,8.284 8.637,8.545 9.056,8.83 9.586,8.247 10.009,7.591 10.368,6.891 8.763,5.126 6.914,3.614 5.189,1.974 4.522,1.34 3.865,0.693 3.191,0.065 2.917,-0.191 2.701,-0.531 2.29,-0.605 1.504,-0.488 0.746,-0.268 0,0" /></g><g
           transform="translate(103.0892,61.0948)"
           id="g108"><path
             id="path110"
             style="fill:#31564e;fill-opacity:1;fill-rule:nonzero;stroke:none"
             d="m 0,0 c 0.887,1 1.779,1.993 2.861,2.796 0.229,0.169 0.432,0.38 0.624,0.592 1.244,1.371 2.761,2.455 4.014,3.816 0.156,0.17 0.336,0.295 0.579,0.293 0,0 0,-10e-4 0,-10e-4 C 8.189,7.394 8.151,7.209 8.285,7.119 L 8.278,7.125 C 8.324,7.046 8.401,6.992 8.455,6.92 8.857,6.389 9.246,5.852 9.462,5.212 9.342,5.178 9.197,5.175 9.103,5.105 8.699,4.802 8.265,4.522 7.924,4.157 6.473,2.603 4.776,1.31 3.32,-0.237 3.125,-0.444 2.891,-0.624 2.893,-0.948 2.1,-0.772 1.335,-0.512 0.593,-0.182 0.435,-0.004 0.175,-0.153 0.008,-0.001 L 0,0 Z" /></g><g
           transform="translate(405.9047,80.3057)"
           id="g112"><path
             id="path114"
             style="fill:#00a496;fill-opacity:1;fill-rule:nonzero;stroke:none"
             d="m 0,0 c -1.01,0.202 -1.822,0.764 -2.501,1.493 -3.107,3.338 -1.6,8.737 2.704,9.913 1.292,0.353 2.576,0.365 3.817,-0.228 C 4.276,10.849 4.307,10.492 4.158,10.112 3.838,9.693 3.454,9.976 3.107,10.039 0.869,10.448 -0.979,9.746 -2,8.08 -3.378,5.833 -2.614,2.905 -0.313,1.608 -0.011,1.437 0.349,1.357 0.573,1.057 0.729,0.517 0.448,0.213 0,0" /></g><g
           transform="translate(108.6911,72.2462)"
           id="g116"><path
             id="path118"
             style="fill:#2c6458;fill-opacity:1;fill-rule:nonzero;stroke:none"
             d="m 0,0 c -0.181,0.058 -0.361,0.145 -0.547,0.012 -0.129,-0.091 -0.284,-0.158 -0.389,-0.272 -1.127,-1.222 -2.494,-2.188 -3.621,-3.412 -0.365,-0.397 -0.744,-0.782 -1.217,-1.073 -0.288,-0.177 -0.574,-0.423 -0.581,-0.829 -0.063,-0.059 -0.136,-0.074 -0.218,-0.049 -0.246,0.057 -0.448,0.178 -0.575,0.404 -0.434,0.215 -0.924,0.309 -1.323,0.601 -0.156,0.172 -0.127,0.373 -0.004,0.521 1.005,1.217 2.188,2.24 3.478,3.143 0.146,0.029 0.306,0.02 0.422,0.138 0.027,0.072 0.052,0.141 0.071,0.217 0.015,0.039 0.03,0.075 0.046,0.113 0.645,0.936 1.582,1.562 2.417,2.294 0.191,0.167 0.414,0.321 0.679,0.107 C -0.951,1.394 -0.535,0.878 -0.133,0.351 -0.06,0.256 -0.043,0.118 0,0" /></g><g
           transform="translate(409.9286,90.3044)"
           id="g120"><path
             id="path122"
             style="fill:#009f80;fill-opacity:1;fill-rule:nonzero;stroke:none"
             d="M 0,0 C -0.001,0.393 -0.002,0.786 -0.003,1.179 1.065,0.906 1.883,0.252 2.521,-0.605 3.924,-2.488 4.254,-4.551 3.321,-6.734 2.383,-8.93 0.63,-10.06 -1.696,-10.339 c -0.796,-0.096 -1.588,-0.014 -2.328,0.34 0.183,0.314 0.367,0.628 0.55,0.941 0.22,0.269 0.512,0.203 0.797,0.171 2.27,-0.256 4.077,1.216 4.747,2.841 0.741,1.801 0.216,3.83 -1.34,5.202 C 0.45,-0.597 0.064,-0.435 0,0" /></g><g
           transform="translate(87.933,63.4393)"
           id="g124"><path
             id="path126"
             style="fill:#06816f;fill-opacity:1;fill-rule:nonzero;stroke:none"
             d="m 0,0 c -0.542,-0.004 -1.085,-0.019 -1.627,-0.011 -2.78,0.041 -5.559,-0.01 -8.33,-0.25 -1.494,-0.129 -2.983,-0.327 -4.475,-0.487 -0.207,-0.022 -0.419,-0.003 -0.666,-0.003 0.127,0.302 0.397,0.361 0.611,0.466 1.236,0.602 2.526,1.067 3.834,1.487 1.856,0.596 3.749,1.044 5.659,1.425 0.122,0.025 0.253,0.007 0.38,0.009 C -4.997,1.78 -5.839,1.308 -6.481,0.419 -4.95,0.413 -3.545,0.41 -2.137,0.429 -1.666,0.441 -1.196,0.479 -0.73,0.423 -0.439,0.387 -0.076,0.428 0,0" /></g><g
           transform="translate(85.6472,63.6227)"
           id="g128"><path
             id="path130"
             style="fill:#197a68;fill-opacity:1;fill-rule:nonzero;stroke:none"
             d="m 0,0 c -1.492,-0.007 -2.983,-0.014 -4.475,-0.016 -0.053,-0.001 -0.106,0.045 -0.163,0.072 -0.064,0.194 0.1,0.281 0.199,0.389 0.512,0.562 1.107,1.043 1.574,1.652 0.124,0.161 0.355,0.239 0.537,0.356 0.443,0.208 0.93,0.213 1.4,0.281 C 0.269,2.908 1.469,3.061 2.67,3.21 2.92,3.241 3.177,3.216 3.431,3.216 2.323,2.107 1.311,0.893 0,0" /></g><g
           transform="translate(85.6472,63.6227)"
           id="g132"><path
             id="path134"
             style="fill:#237263;fill-opacity:1;fill-rule:nonzero;stroke:none"
             d="M 0,0 C 0.659,0.859 1.503,1.539 2.237,2.326 2.581,2.695 2.941,3.043 3.431,3.216 4.578,3.413 5.734,3.465 6.895,3.412 7.243,2.939 6.874,2.644 6.609,2.347 5.762,1.401 4.764,0.616 3.826,-0.234 3.31,-0.289 2.798,-0.242 2.286,-0.183 2.116,-0.005 1.894,-0.025 1.677,-0.022 1.118,-0.015 0.559,-0.007 0,0" /></g><g
           transform="translate(102.1071,66.685)"
           id="g136"><path
             id="path138"
             style="fill:#2c6358;fill-opacity:1;fill-rule:nonzero;stroke:none"
             d="m 0,0 c 0.076,-0.004 0.152,-0.009 0.229,-0.013 -0.321,-0.198 -0.621,-0.414 -0.841,-0.734 -0.107,-0.155 -0.25,-0.299 -0.406,-0.404 -1.096,-0.742 -1.901,-1.792 -2.856,-2.682 -0.239,-0.223 -0.227,-0.236 0.072,-0.589 -0.72,0.042 -1.425,0.161 -2.112,0.383 -0.3,0.213 -0.674,-0.013 -0.981,0.165 l -0.012,-0.009 c -0.134,0.399 0.093,0.701 0.345,0.92 1.193,1.031 2.247,2.214 3.493,3.186 C -2.978,0.257 -2.89,0.251 -2.806,0.2 -2.249,0.181 -1.691,0.162 -1.134,0.143 -0.771,-0.026 -0.354,0.233 0,0" /></g><g
           transform="translate(89.4732,63.3887)"
           id="g140"><path
             id="path142"
             style="fill:#276d5f;fill-opacity:1;fill-rule:nonzero;stroke:none"
             d="M 0,0 C 0.199,0.514 0.542,0.887 1,1.207 1.722,1.712 2.275,2.412 2.9,3.029 3.072,3.2 3.073,3.424 3.069,3.646 4.284,3.738 5.499,3.758 6.714,3.649 6.64,2.646 5.802,2.197 5.197,1.588 4.888,1.276 4.518,1.022 4.185,0.729 3.841,0.425 3.694,0.096 3.837,-0.347 3.186,-0.395 2.551,-0.278 1.916,-0.153 1.329,0.056 0.701,-0.199 0.113,0 L 0.056,-0.038 0,0 Z" /></g><g
           transform="translate(95.4118,76.4312)"
           id="g144"><path
             id="path146"
             style="fill:#1c7968;fill-opacity:1;fill-rule:nonzero;stroke:none"
             d="M 0,0 C 1.478,0.042 2.957,0.109 4.425,-0.154 4.455,-0.704 4.001,-0.959 3.701,-1.289 3.174,-1.867 2.549,-2.344 1.939,-2.835 c -0.636,0.022 -1.224,0.268 -1.84,0.387 -0.863,0.168 -1.718,0.377 -2.577,0.569 -0.016,0.8 0.814,1.718 1.64,1.81 C -0.559,-0.037 -0.271,-0.123 0,0" /></g><g
           transform="translate(103.3049,79.3497)"
           id="g148"><path
             id="path150"
             style="fill:#1e7766;fill-opacity:1;fill-rule:nonzero;stroke:none"
             d="m 0,0 c 0.503,-0.604 1.006,-1.208 1.509,-1.812 0.101,-0.121 0.22,-0.23 0.302,-0.363 0.114,-0.182 -0.016,-0.286 -0.159,-0.373 -1.34,0.469 -2.672,0.959 -4.049,1.316 -0.547,0.142 -1.12,0.192 -1.636,0.447 -0.193,0.158 -0.564,0.14 -0.472,0.569 0.147,0.685 1.507,1.656 2.261,1.58 0.295,0.007 0.59,0.014 0.885,0.021 C -0.84,0.988 -0.42,0.494 0,0" /></g><g
           transform="translate(97.3512,73.5967)"
           id="g152"><path
             id="path154"
             style="fill:#237162;fill-opacity:1;fill-rule:nonzero;stroke:none"
             d="M 0,0 C 0.183,0.411 0.435,0.736 0.826,1.005 1.263,1.305 1.616,1.73 1.995,2.111 2.171,2.289 2.323,2.49 2.486,2.68 3.728,2.706 4.954,2.57 6.167,2.311 5.666,1.383 4.715,0.9 4.024,0.157 3.709,-0.181 3.456,-0.514 3.444,-0.988 2.528,-0.802 1.636,-0.533 0.764,-0.199 0.586,-0.032 0.327,-0.164 0.14,-0.029 L 0.064,-0.044 0,0 Z" /></g><g
           transform="translate(93.3104,63.0417)"
           id="g156"><path
             id="path158"
             style="fill:#2a685c;fill-opacity:1;fill-rule:nonzero;stroke:none"
             d="m 0,0 c -0.105,0.063 -0.205,0.14 -0.317,0.186 -0.185,0.076 -0.264,0.217 -0.134,0.359 0.383,0.418 0.747,0.877 1.202,1.203 0.862,0.616 1.561,1.363 2.126,2.248 0.197,0.056 0.394,0.05 0.59,-0.01 C 4.219,3.756 5.024,4.114 5.766,3.779 4.885,2.868 4.056,1.906 3.021,1.15 2.536,0.795 2.133,0.332 1.89,-0.24 1.772,-0.226 1.654,-0.212 1.536,-0.198 1.16,0.016 0.721,-0.229 0.342,-0.034 0.228,-0.023 0.114,-0.011 0,0" /></g><g
           transform="translate(101.0614,80.7139)"
           id="g160"><path
             id="path162"
             style="fill:#137f6d;fill-opacity:1;fill-rule:nonzero;stroke:none"
             d="m 0,0 c -0.433,0.009 -0.777,-0.104 -1.052,-0.498 -0.251,-0.361 -0.614,-0.644 -0.925,-0.964 -0.091,-0.092 -0.174,-0.205 -0.124,-0.335 0.031,-0.081 0.128,-0.135 0.192,-0.205 0.043,-0.046 0.08,-0.098 0.12,-0.147 -0.424,-0.047 -0.817,0.116 -1.222,0.19 -1.441,0.264 -2.889,0.48 -4.351,0.594 -0.19,0.157 -0.427,0.053 -0.633,0.116 -0.173,0.052 -0.253,0.193 -0.236,0.36 0.028,0.265 0.146,0.476 0.431,0.553 0.268,0.072 0.569,-0.081 0.816,0.124 0.152,0.04 0.303,0.105 0.458,0.115 1.958,0.132 3.915,0.315 5.881,0.215 C -0.425,0.107 -0.199,0.128 0,0" /></g><g
           transform="translate(93.3144,69.5495)"
           id="g164"><path
             id="path166"
             style="fill:#1c7968;fill-opacity:1;fill-rule:nonzero;stroke:none"
             d="m 0,0 c -1.216,0.132 -2.433,0.264 -3.649,0.397 -0.252,0.169 -0.536,0.054 -0.804,0.089 -0.141,0.001 -0.285,-0.007 -0.406,0.087 0.021,1.046 0.758,1.443 1.591,1.752 0.089,0.029 0.177,0.079 0.268,0.084 1.635,0.105 3.271,0.17 4.909,0.066 C 1.608,1.844 1.078,1.419 0.55,1.003 0.211,0.735 -0.037,0.456 0,0" /></g><g
           transform="translate(95.4118,76.4312)"
           id="g168"><path
             id="path170"
             style="fill:#0f826f;fill-opacity:1;fill-rule:nonzero;stroke:none"
             d="m 0,0 c -0.092,-0.094 -0.203,-0.17 -0.335,-0.151 -0.576,0.086 -0.966,-0.203 -1.315,-0.609 -0.186,-0.217 -0.399,-0.411 -0.604,-0.611 -0.143,-0.141 -0.224,-0.306 -0.224,-0.508 -0.674,-0.05 -1.321,0.152 -1.978,0.237 -2.083,0.271 -4.17,0.394 -6.268,0.306 -0.269,-0.039 -0.579,-0.253 -0.738,0.174 1.379,0.235 2.752,0.515 4.138,0.696 C -4.895,-0.148 -2.458,0.114 0,0" /></g><g
           transform="translate(93.3144,69.5495)"
           id="g172"><path
             id="path174"
             style="fill:#237163;fill-opacity:1;fill-rule:nonzero;stroke:none"
             d="M 0,0 C -0.271,0.342 -0.282,0.468 -0.12,0.714 0.131,1.097 0.581,1.231 0.889,1.551 1.184,1.857 1.37,2.298 1.845,2.407 1.87,2.413 1.888,2.452 1.909,2.475 2.173,2.531 2.437,2.524 2.699,2.463 3.412,2.285 4.149,2.516 4.862,2.333 4.972,2.385 5.078,2.376 5.18,2.311 5.353,1.82 4.99,1.547 4.727,1.25 4.118,0.561 3.367,0.027 2.679,-0.576 1.774,-0.442 0.88,-0.251 0,0" /></g><g
           transform="translate(100.7948,72.6084)"
           id="g176"><path
             id="path178"
             style="fill:#276c5f;fill-opacity:1;fill-rule:nonzero;stroke:none"
             d="M 0,0 C -0.036,0.051 -0.069,0.104 -0.109,0.151 -0.361,0.452 -0.378,0.484 -0.178,0.683 0.353,1.215 0.861,1.768 1.453,2.241 1.789,2.51 2.157,2.763 2.392,3.152 2.443,3.237 2.61,3.252 2.724,3.299 3.427,3.359 4.096,3.104 4.788,3.067 4.862,3.006 4.899,2.928 4.905,2.834 4.439,1.833 3.503,1.25 2.782,0.478 2.443,0.116 2.063,-0.214 1.726,-0.584 1.124,-0.467 0.545,-0.283 0,0" /></g><g
           transform="translate(103.8966,71.104)"
           id="g180"><path
             id="path182"
             style="fill:#2a685c;fill-opacity:1;fill-rule:nonzero;stroke:none"
             d="m 0,0 c -0.255,-0.014 -0.472,-0.046 -0.654,-0.292 -0.338,-0.456 -0.779,-0.81 -1.228,-1.167 -0.613,-0.49 -1.136,-1.094 -1.685,-1.662 -0.076,-0.08 -0.075,-0.235 -0.11,-0.355 -0.601,0.127 -1.171,0.343 -1.725,0.602 -0.517,0.3 -0.287,0.652 -0.02,0.937 0.737,0.786 1.623,1.415 2.345,2.227 0.282,0.317 0.768,0.212 1.175,0.097 0.364,-0.018 0.727,-0.037 1.09,-0.056 0.252,-0.079 0.536,0.12 0.773,-0.088 C 0.006,0.195 0.027,0.143 0.024,0.087 0.02,0.029 0.012,0 0,0" /></g><g
           transform="translate(101.9947,71.4911)"
           id="g184"><path
             id="path186"
             style="fill:#286d5f;fill-opacity:1;fill-rule:nonzero;stroke:none"
             d="m 0,0 c -0.188,-0.008 -0.377,-0.021 -0.565,-0.022 -0.276,-0.001 -0.459,-0.125 -0.619,-0.354 -0.397,-0.569 -0.883,-1.05 -1.463,-1.445 -0.308,-0.208 -0.548,-0.515 -0.828,-0.767 -0.248,-0.222 -0.163,-0.443 -0.025,-0.673 -0.661,0.126 -1.298,0.331 -1.922,0.578 -0.165,0.141 -0.41,0.006 -0.57,0.163 0,0 -0.009,0.003 -0.009,0.003 0.042,0.47 0.405,0.691 0.732,0.941 0.707,0.541 1.388,1.106 1.769,1.945 C -2.318,0.395 -1.152,0.26 0,0" /></g><g
           transform="translate(102.5206,72.0248)"
           id="g188"><path
             id="path190"
             style="fill:#29685b;fill-opacity:1;fill-rule:nonzero;stroke:none"
             d="M 0,0 C -0.006,0.329 0.092,0.568 0.379,0.799 1.382,1.609 2.303,2.508 3.099,3.528 3.345,3.59 3.591,3.642 3.832,3.509 4.116,3.022 4.632,2.699 4.809,2.136 4.717,2.118 4.597,2.13 4.537,2.076 3.579,1.223 2.493,0.507 1.733,-0.556 1.668,-0.622 1.589,-0.662 1.498,-0.678 1.23,-0.63 0.962,-0.583 0.766,-0.367 0.511,-0.245 0.255,-0.122 0,0" /></g><g
           transform="translate(90.0463,71.8749)"
           id="g192"><path
             id="path194"
             style="fill:#11806e;fill-opacity:1;fill-rule:nonzero;stroke:none"
             d="m 0,0 c -0.575,-0.363 -0.975,-0.908 -1.428,-1.396 -0.073,-0.079 -0.071,-0.229 -0.103,-0.346 -1.541,-0.218 -3.089,-0.043 -4.633,-0.094 -0.193,-0.006 -0.397,0.019 -0.438,0.259 -0.084,0.498 0.316,0.626 0.641,0.807 l -10e-4,-0.003 c 0.298,0.197 0.678,-0.052 0.969,0.179 0.467,0.247 0.992,0.211 1.49,0.281 C -2.342,-0.15 -1.182,0.058 0,0" /></g><g
           transform="translate(84.0857,71.105)"
           id="g196"><path
             id="path198"
             style="fill:#0d8672;fill-opacity:1;fill-rule:nonzero;stroke:none"
             d="M 0,0 C -0.016,-0.027 -0.028,-0.058 -0.048,-0.081 -0.243,-0.308 -0.622,-0.503 -0.427,-0.844 -0.279,-1.103 0.093,-0.97 0.365,-0.971 1.719,-0.98 3.074,-0.973 4.429,-0.972 4.556,-0.974 4.683,-0.976 4.811,-0.977 4.873,-1.013 4.894,-1.049 4.873,-1.086 4.853,-1.122 4.832,-1.141 4.811,-1.141 3.919,-1.145 3.026,-1.166 2.133,-1.15 c -2.108,0.039 -4.207,-0.165 -6.31,-0.245 -0.283,-0.007 -0.634,-0.282 -0.791,0.201 1.436,0.506 2.918,0.837 4.403,1.153 C -0.382,-0.002 -0.189,-0.012 0,0" /></g><g
           transform="translate(94.0772,80.5024)"
           id="g200"><path
             id="path202"
             style="fill:#148875;fill-opacity:1;fill-rule:nonzero;stroke:none"
             d="m 0,0 c -0.139,-0.224 -0.371,-0.192 -0.584,-0.206 -0.167,-0.011 -0.283,-0.089 -0.381,-0.226 -0.193,-0.267 -0.147,-0.433 0.185,-0.523 0.152,-0.041 0.302,-0.062 0.403,-0.198 -1.842,-0.038 -3.681,0.026 -5.52,0.123 -0.09,0.004 -0.178,0.046 -0.286,0.075 0.188,0.29 0.487,0.194 0.72,0.233 1.47,0.245 2.945,0.469 4.42,0.682 C -0.7,0.009 -0.348,-0.012 0,0" /></g><g
           transform="translate(99.0764,66.8204)"
           id="g204"><path
             id="path206"
             style="fill:#276d5f;fill-opacity:1;fill-rule:nonzero;stroke:none"
             d="M 0,0 C -0.563,0.015 -1.125,0.03 -1.688,0.043 -1.905,0.049 -2.131,0.02 -2.299,0.207 -1.453,0.236 -0.607,0.279 0.224,0.065 0.15,0.043 0.075,0.022 0,0" /></g><g
           transform="translate(79.1176,69.9114)"
           id="g208"><path
             id="path210"
             style="fill:#67a496;fill-opacity:1;fill-rule:nonzero;stroke:none"
             d="M 0,0 C 0.214,-0.263 0.541,-0.081 0.791,-0.202 0.294,-0.438 -0.23,-0.363 -0.917,-0.375 -0.549,-0.117 -0.308,0.015 0,0" /></g><g
           transform="translate(72.7946,112.0084)"
           id="g212"><path
             id="path214"
             style="fill:#42b6ac;fill-opacity:1;fill-rule:nonzero;stroke:none"
             d="M 0,0 C -0.143,-0.05 -0.318,-0.038 -0.403,-0.203 -0.767,-0.184 -1.048,0.048 -1.368,0.178 -1.424,0.225 -1.443,0.272 -1.426,0.32 -1.408,0.368 -1.39,0.392 -1.371,0.392 -0.896,0.326 -0.423,0.251 0,0" /></g><g
           transform="translate(83.9498,75.2692)"
           id="g216"><path
             id="path218"
             style="fill:#9ac1bc;fill-opacity:1;fill-rule:nonzero;stroke:none"
             d="M 0,0 C 0.214,-0.193 0.505,-0.061 0.738,-0.174 0.239,-0.459 -0.296,-0.291 -0.826,-0.299 -0.58,-0.104 -0.333,0.066 0,0" /></g><g
           transform="translate(69.7166,105.6646)"
           id="g220"><path
             id="path222"
             style="fill:#47b6aa;fill-opacity:1;fill-rule:nonzero;stroke:none"
             d="m 0,0 c -0.15,-0.049 -0.336,-0.029 -0.414,-0.215 -0.362,0.026 -0.643,0.247 -0.954,0.395 -0.053,0.051 -0.07,0.1 -0.051,0.149 0.02,0.048 0.038,0.072 0.057,0.072 C -0.889,0.332 -0.418,0.255 0,0" /></g><g
           transform="translate(98.1762,71.8821)"
           id="g224"><path
             id="path226"
             style="fill:#1c7968;fill-opacity:1;fill-rule:nonzero;stroke:none"
             d="M 0,0 C -0.543,-0.009 -1.087,-0.018 -1.63,-0.025 -1.823,-0.028 -2.016,-0.027 -2.163,0.13 -1.437,0.162 -0.711,0.209 0,0" /></g><g
           transform="translate(79.8994,117.7697)"
           id="g228"><path
             id="path230"
             style="fill:#37b4aa;fill-opacity:1;fill-rule:nonzero;stroke:none"
             d="m 0,0 c -0.078,-0.075 -0.156,-0.15 -0.234,-0.226 -0.357,0.031 -0.615,0.285 -0.93,0.411 -0.052,0.178 10e-4,0.259 0.195,0.208 C -0.636,0.288 -0.283,0.231 0,0" /></g><g
           transform="translate(89.5857,63.3885)"
           id="g232"><path
             id="path234"
             style="fill:#237263;fill-opacity:1;fill-rule:nonzero;stroke:none"
             d="M 0,0 C 0.433,0.007 0.865,0.014 1.298,0.02 1.486,0.022 1.669,0.003 1.804,-0.153 1.197,-0.169 0.588,-0.204 0,0" /></g><g
           transform="translate(78.9301,118.1629)"
           id="g236"><path
             id="path238"
             style="fill:#9ed1ca;fill-opacity:1;fill-rule:nonzero;stroke:none"
             d="M 0,0 C -0.065,-0.07 -0.13,-0.139 -0.195,-0.209 -0.448,-0.114 -0.72,-0.05 -0.915,0.275 -0.548,0.27 -0.257,0.203 0,0" /></g><g
           transform="translate(102.1071,66.685)"
           id="g240"><path
             id="path242"
             style="fill:#97a69f;fill-opacity:1;fill-rule:nonzero;stroke:none"
             d="m 0,0 c -0.387,-0.022 -0.779,-0.087 -1.134,0.143 0.177,0.105 0.436,-0.028 0.57,0.2 C -0.326,0.31 -0.127,0.215 0,0" /></g><g
           transform="translate(103.2868,71.6579)"
           id="g244"><path
             id="path246"
             style="fill:#afc5c6;fill-opacity:1;fill-rule:nonzero;stroke:none"
             d="M 0,0 C 0.284,0.049 0.486,-0.199 0.753,-0.211 0.812,-0.39 0.758,-0.463 0.568,-0.408 0.305,-0.372 0.021,-0.424 -0.202,-0.223 -0.135,-0.148 -0.067,-0.074 0,0" /></g><g
           transform="translate(93.6527,63.0077)"
           id="g248"><path
             id="path250"
             style="fill:#276d5f;fill-opacity:1;fill-rule:nonzero;stroke:none"
             d="M 0,0 C 0.268,0.005 0.535,0.012 0.803,0.013 0.958,0.014 1.092,-0.042 1.194,-0.164 0.786,-0.179 0.379,-0.195 0,0" /></g><g
           transform="translate(104.4274,87.5721)"
           id="g252"><path
             id="path254"
             style="fill:#aed8d4;fill-opacity:1;fill-rule:nonzero;stroke:none"
             d="M 0,0 C -0.142,0.117 -0.312,0.208 -0.378,0.397 -0.301,0.474 -0.225,0.55 -0.149,0.626 0.04,0.551 0.108,0.367 0.217,0.221 0.274,0.02 0.183,-0.035 0,0" /></g><g
           transform="translate(114.0786,98.7601)"
           id="g256"><path
             id="path258"
             style="fill:#9cd0cb;fill-opacity:1;fill-rule:nonzero;stroke:none"
             d="M 0,0 C 0.242,-0.131 0.33,-0.375 0.446,-0.599 0.349,-0.679 0.246,-0.686 0.139,-0.62 -0.004,-0.503 -0.156,-0.395 -0.206,-0.202 -0.138,-0.135 -0.069,-0.067 0,0" /></g><g
           transform="translate(84.3151,122.5757)"
           id="g260"><path
             id="path262"
             style="fill:#68bdb0;fill-opacity:1;fill-rule:nonzero;stroke:none"
             d="m 0,0 c -0.067,-0.064 -0.135,-0.129 -0.202,-0.193 -0.226,0.016 -0.42,0.104 -0.595,0.245 C -0.437,0.185 -0.437,0.186 0,0" /></g><g
           transform="translate(95.2124,62.8106)"
           id="g264"><path
             id="path266"
             style="fill:#2a685c;fill-opacity:1;fill-rule:nonzero;stroke:none"
             d="M 0,0 C 0.335,-0.005 0.696,0.139 0.981,-0.165 0.644,-0.168 0.299,-0.221 0,0" /></g><g
           transform="translate(85.0538,71.281)"
           id="g268"><path
             id="path270"
             style="fill:#0d8672;fill-opacity:1;fill-rule:nonzero;stroke:none"
             d="M 0,0 C -0.276,-0.315 -0.639,-0.16 -0.97,-0.179 -0.674,0.029 -0.337,0.012 0,0" /></g><g
           transform="translate(106.3528,75.5341)"
           id="g272"><path
             id="path274"
             style="fill:#a3b5ae;fill-opacity:1;fill-rule:nonzero;stroke:none"
             d="M 0,0 C -0.244,0.006 -0.489,0.012 -0.733,0.018 -0.745,0.059 -0.757,0.1 -0.77,0.141 -0.612,0.207 -0.401,0.165 -0.311,0.369 -0.132,0.309 -0.082,0.141 0,0" /></g><g
           transform="translate(71.4233,112.4007)"
           id="g276"><path
             id="path278"
             style="fill:#93ccc4;fill-opacity:1;fill-rule:nonzero;stroke:none"
             d="m 0,0 c 0.001,-0.072 0.002,-0.143 0.003,-0.214 -0.058,0.016 -0.14,0.015 -0.171,0.054 -0.078,0.094 -0.372,0.072 -0.22,0.273 C -0.301,0.227 -0.103,0.143 0,0" /></g><g
           transform="translate(88.8971,69.9645)"
           id="g280"><path
             id="path282"
             style="fill:#11806e;fill-opacity:1;fill-rule:nonzero;stroke:none"
             d="M 0,0 C 0,0.054 -0.001,0.109 -0.001,0.163 0.264,0.14 0.56,0.247 0.768,-0.018 0.511,-0.072 0.255,-0.059 0,0" /></g><g
           transform="translate(68.3544,106.066)"
           id="g284"><path
             id="path286"
             style="fill:#87c7bc;fill-opacity:1;fill-rule:nonzero;stroke:none"
             d="m 0,0 c -0.002,-0.074 -0.004,-0.148 -0.006,-0.221 -0.077,0.034 -0.165,0.055 -0.229,0.105 -0.06,0.047 -0.148,0.12 -0.051,0.206 0.032,0.029 0.108,0.029 0.154,0.014 C -0.082,0.087 -0.043,0.036 0,0" /></g><g
           transform="translate(96.0027,68.9713)"
           id="g288"><path
             id="path290"
             style="fill:#237163;fill-opacity:1;fill-rule:nonzero;stroke:none"
             d="M 0,0 C 0.207,0.005 0.423,0.039 0.57,-0.164 0.357,-0.19 0.162,-0.154 0,0" /></g><g
           transform="translate(97.4912,73.5673)"
           id="g292"><path
             id="path294"
             style="fill:#1c7968;fill-opacity:1;fill-rule:nonzero;stroke:none"
             d="M 0,0 C 0.228,0.018 0.462,0.057 0.624,-0.169 0.396,-0.187 0.176,-0.172 0,0" /></g><g
           transform="translate(109.4536,92.9913)"
           id="g296"><path
             id="path298"
             style="fill:#c9e4e1;fill-opacity:1;fill-rule:nonzero;stroke:none"
             d="M 0,0 C -0.085,0.112 -0.17,0.224 -0.255,0.335 -0.159,0.35 -0.063,0.364 0.033,0.378 0.097,0.319 0.162,0.259 0.226,0.199 0.256,0.013 0.173,-0.045 0,0" /></g><g
           transform="translate(103.0976,61.0933)"
           id="g300"><path
             id="path302"
             style="fill:#305a51;fill-opacity:1;fill-rule:nonzero;stroke:none"
             d="M 0,0 C 0.217,0.012 0.44,0.043 0.585,-0.181 0.368,-0.192 0.158,-0.181 0,0" /></g><g
           transform="translate(80.4692,117.5697)"
           id="g304"><path
             id="path306"
             style="fill:#37b4aa;fill-opacity:1;fill-rule:nonzero;stroke:none"
             d="M 0,0 C -0.17,-0.038 -0.309,0.007 -0.408,0.156 -0.241,0.185 -0.104,0.136 0,0" /></g><g
           transform="translate(109.8031,58.5872)"
           id="g308"><path
             id="path310"
             style="fill:#31514a;fill-opacity:1;fill-rule:nonzero;stroke:none"
             d="M 0,0 C 0.171,0.019 0.32,-0.009 0.395,-0.19 0.236,-0.184 0.083,-0.164 0,0" /></g><g
           transform="translate(108.8697,93.6127)"
           id="g312"><path
             id="path314"
             style="fill:#c9e4e1;fill-opacity:1;fill-rule:nonzero;stroke:none"
             d="M 0,0 C -0.09,0.003 -0.139,0.049 -0.15,0.138 -0.1,0.092 -0.05,0.046 0,0" /></g><g
           transform="translate(109.2441,93.7329)"
           id="g316"><path
             id="path318"
             style="fill:#c9e4e1;fill-opacity:1;fill-rule:nonzero;stroke:none"
             d="M 0,0 C 0.093,-0.027 0.148,-0.084 0.141,-0.186 0.049,-0.158 0.004,-0.095 0,0" /></g><g
           transform="translate(79.6741,117.5401)"
           id="g320"><path
             id="path322"
             style="fill:#37b4aa;fill-opacity:1;fill-rule:nonzero;stroke:none"
             d="M 0,0 C 0.103,0.013 0.171,-0.03 0.205,-0.128 0.098,-0.147 0.036,-0.094 0,0" /></g><g
           transform="translate(109.0738,93.966)"
           id="g324"><path
             id="path326"
             style="fill:#c9e4e1;fill-opacity:1;fill-rule:nonzero;stroke:none"
             d="M 0,0 C 0.105,-0.038 0.162,-0.111 0.165,-0.224 0.064,-0.183 0.005,-0.111 0,0" /></g><g
           transform="translate(142.4749,94.6366)"
           id="g328"><path
             id="path330"
             style="fill:#fcfefd;fill-opacity:1;fill-rule:nonzero;stroke:none"
             d="m 0,0 c -0.012,-0.988 -0.792,-1.763 -1.782,-1.747 -0.96,0.017 -1.729,0.672 -1.784,1.765 -0.051,0.993 0.833,1.819 1.849,1.792 C -0.735,1.784 0.013,0.996 0,0" /></g><g
           transform="translate(109.4536,92.9913)"
           id="g332"><path
             id="path334"
             style="fill:#65bdb5;fill-opacity:1;fill-rule:nonzero;stroke:none"
             d="M 0,0 C 0.075,0.066 0.151,0.133 0.226,0.199 0.44,0.059 0.574,-0.128 0.568,-0.395 L 0.557,-0.406 C 0.269,-0.411 0.111,-0.238 0,0" /></g><g
           transform="translate(114.2173,98.14)"
           id="g336"><path
             id="path338"
             style="fill:#6bbeb4;fill-opacity:1;fill-rule:nonzero;stroke:none"
             d="m 0,0 c 0.102,0.007 0.205,0.014 0.307,0.021 0.129,-0.087 0.219,-0.204 0.232,-0.36 0.003,-0.03 -0.082,-0.1 -0.1,-0.092 C 0.242,-0.342 0.105,-0.186 0,0" /></g><g
           transform="translate(104.4274,87.5721)"
           id="g340"><path
             id="path342"
             style="fill:#67beb5;fill-opacity:1;fill-rule:nonzero;stroke:none"
             d="M 0,0 C 0.112,0.035 0.184,0.109 0.217,0.221 0.353,0.131 0.429,0 0.482,-0.15 0.507,-0.221 0.499,-0.273 0.427,-0.304 0.401,-0.315 0.363,-0.313 0.336,-0.303 0.187,-0.245 0.074,-0.144 0,0" /></g><g
           transform="translate(110.0215,92.5965)"
           id="g344"><path
             id="path346"
             style="fill:#65bdb5;fill-opacity:1;fill-rule:nonzero;stroke:none"
             d="M 0,0 C 0.025,-0.029 0.049,-0.058 0.074,-0.088 0.046,-0.062 0.018,-0.036 -0.011,-0.011 -0.011,-0.011 0,0 0,0" /></g><g
           transform="translate(295.8114,58.303)"
           id="g348"><path
             id="path350"
             style="fill:#ffffff;fill-opacity:1;fill-rule:nonzero;stroke:none"
             d="m 0,0 c 0.07,0.959 0.387,1.862 0.731,2.749 1.761,4.545 4.966,7.655 9.458,9.488 2.356,0.961 4.809,1.281 7.323,1.079 2.423,-0.194 4.687,-0.96 6.782,-2.189 C 28.416,8.71 31.059,5.174 32.215,0.533 32.238,0.44 32.265,0.347 32.278,0.253 32.304,0.07 32.236,-0.063 32.04,-0.077 31.785,-0.095 31.529,-0.098 31.274,-0.098 21.172,-0.099 11.071,-0.099 0.97,-0.095 0.656,-0.095 0.331,-0.167 0,0" /></g><g
           transform="translate(199.6712,54.3829)"
           id="g352"><path
             id="path354"
             style="fill:#ffffff;fill-opacity:1;fill-rule:nonzero;stroke:none"
             d="m 0,0 c -0.003,0.575 0.001,1.15 -0.009,1.725 -0.043,2.545 0.528,4.934 1.778,7.162 0.99,1.765 2.123,3.418 3.596,4.822 2.117,2.017 4.603,3.315 7.496,3.774 2.614,0.415 5.214,0.365 7.78,-0.374 2.024,-0.583 3.87,-1.509 5.478,-2.865 1.671,-1.407 3.158,-2.983 4.227,-4.916 0.972,-1.755 1.598,-3.614 1.754,-5.622 0.04,-0.509 0.114,-1.017 0.126,-1.526 0.049,-2.06 -0.254,-4.071 -0.876,-6.035 -1.222,-2.943 -3.019,-5.47 -5.501,-7.479 -2.41,-1.949 -5.188,-2.962 -8.282,-3.09 -0.86,-0.035 -1.724,-0.034 -2.585,-0.013 -2.546,0.062 -4.897,0.784 -7.055,2.137 -1.993,1.25 -3.763,2.748 -5.155,4.659 -1.399,1.919 -2.27,4.055 -2.597,6.409 C 0.118,-0.821 0.058,-0.411 0,0" /></g><g
           transform="translate(278.4038,48.0544)"
           id="g356"><path
             id="path358"
             style="fill:#ffffff;fill-opacity:1;fill-rule:nonzero;stroke:none"
             d="m 0,0 c -0.684,-1.002 -1.348,-2.018 -2.148,-2.936 -1.78,-2.039 -3.899,-3.579 -6.485,-4.436 -1.28,-0.424 -2.59,-0.697 -3.942,-0.725 -0.862,-0.018 -1.726,-0.033 -2.588,-0.012 -2.549,0.061 -4.902,0.781 -7.063,2.136 -1.996,1.251 -3.758,2.756 -5.164,4.661 -0.533,0.722 -0.949,1.513 -1.399,2.285 -0.403,1.041 -0.83,2.075 -1.038,3.18 -0.159,0.848 -0.327,1.696 -0.322,2.563 0.007,1.245 -0.06,2.486 0.138,3.732 0.265,1.664 0.774,3.222 1.587,4.695 1.011,1.832 2.186,3.535 3.717,4.975 2.083,1.959 4.523,3.224 7.347,3.685 2.615,0.426 5.218,0.38 7.79,-0.351 2.028,-0.577 3.88,-1.495 5.494,-2.848 1.65,-1.383 3.122,-2.932 4.195,-4.828 C 1.143,13.969 1.742,12.047 1.965,9.977 2.128,8.466 2.099,6.97 1.887,5.483 1.642,3.772 1.236,2.092 0.313,0.589 0.197,0.399 0.104,0.197 0,0" /></g><g
           transform="translate(111.3742,68.2136)"
           id="g360"><path
             id="path362"
             style="fill:#305a51;fill-opacity:1;fill-rule:nonzero;stroke:none"
             d="M 0,0 C -0.166,0.073 -0.202,0.216 -0.207,0.378 -0.056,0.297 -0.009,0.158 0,0" /></g><g
           transform="translate(111.5444,68.0145)"
           id="g364"><path
             id="path366"
             style="fill:#305a51;fill-opacity:1;fill-rule:nonzero;stroke:none"
             d="M 0,0 C -0.059,0.069 -0.118,0.137 -0.178,0.206 -0.118,0.137 -0.059,0.069 0,0" /></g><g
           transform="translate(409.9286,90.3044)"
           id="g368"><path
             id="path370"
             style="fill:#fdfeff;fill-opacity:1;fill-rule:nonzero;stroke:none"
             d="m 0,0 c 0.158,-0.106 0.316,-0.213 0.474,-0.319 1.765,-1.18 2.579,-3.326 1.984,-5.353 -0.636,-2.163 -2.398,-3.394 -4.51,-3.507 -0.47,-0.025 -0.947,0.078 -1.422,0.121 -0.289,0.133 -0.581,0.259 -0.867,0.398 -1.922,0.933 -3.104,3.214 -2.462,5.573 0.629,2.309 2.696,3.717 5.049,3.523 C -1.139,0.385 -0.579,0.169 0,0" /></g><g
           transform="translate(103.8551,71.2494)"
           id="g372"><path
             id="path374"
             style="fill:#6b8b82;fill-opacity:1;fill-rule:nonzero;stroke:none"
             d="m 0,0 c 0.062,0.066 0.123,0.132 0.185,0.198 0.071,0.007 0.142,0.014 0.213,0.022 0,0 0.001,0.001 0.001,0.001 C 0.46,0.157 0.525,0.098 0.595,0.045 0.482,-0.228 0.242,-0.131 0.041,-0.146 0.029,-0.096 0.015,-0.048 0,0" /></g><g
           transform="translate(104.4502,71.2941)"
           id="g376"><path
             id="path378"
             style="fill:#29685b;fill-opacity:1;fill-rule:nonzero;stroke:none"
             d="M 0,0 C -0.065,0.059 -0.131,0.117 -0.196,0.176 -0.131,0.117 -0.065,0.059 0,0" /></g><g
           transform="translate(408.7965,85.6428)"
           id="g380"><path
             id="path382"
             style="fill:#00a496;fill-opacity:1;fill-rule:nonzero;stroke:none"
             d="m 0,0 c -0.003,-0.103 -0.007,-0.206 -0.01,-0.309 -0.094,-0.393 -0.165,-0.799 -0.59,-0.996 -0.14,0.173 -0.276,0.348 -0.419,0.518 -0.262,0.312 -0.595,0.468 -1.007,0.473 -0.302,0.003 -0.427,-0.079 -0.434,-0.371 -0.013,-0.544 -0.002,-1.088 -0.012,-1.631 -0.01,-0.55 -0.042,-0.573 -0.62,-0.575 -0.032,0 -0.064,0 -0.096,0 -0.503,0.008 -0.546,0.037 -0.548,0.553 -0.006,1.727 -0.003,3.455 -0.002,5.182 0,0.096 10e-4,0.192 0.009,0.288 0.021,0.228 0.152,0.336 0.378,0.336 0.768,-10e-4 1.536,-0.005 2.303,-10e-4 0.45,0.002 0.895,-0.018 1.327,-0.158 C 0.466,3.249 0.635,3.17 0.754,3.007 0.953,1.892 0.618,0.911 0,0" /></g><g
           transform="translate(408.1964,84.338)"
           id="g384"><path
             id="path386"
             style="fill:#00a081;fill-opacity:1;fill-rule:nonzero;stroke:none"
             d="M 0,0 C 0.059,0.141 0.142,0.277 0.171,0.424 0.224,0.686 0.364,0.869 0.59,0.996 0.752,0.957 0.865,0.847 0.963,0.722 1.491,0.055 1.867,-0.7 2.326,-1.5 1.814,-1.649 1.382,-1.586 0.956,-1.569 0.785,-1.562 0.685,-1.414 0.614,-1.273 0.404,-0.851 0.204,-0.425 0,0" /></g><g
           transform="translate(408.7965,85.6428)"
           id="g388"><path
             id="path390"
             style="fill:#00a083;fill-opacity:1;fill-rule:nonzero;stroke:none"
             d="M 0,0 C 0.228,0.879 0.457,1.757 0.683,2.637 0.715,2.758 0.731,2.883 0.754,3.007 1.411,2.538 1.512,1.875 1.322,1.165 1.147,0.51 0.705,0.088 0,0" /></g><g
           transform="translate(407.2066,88.1202)"
           id="g392"><path
             id="path394"
             style="fill:#f3f9f8;fill-opacity:1;fill-rule:nonzero;stroke:none"
             d="m 0,0 c 0.303,-0.038 0.655,-0.058 0.997,-0.13 0.388,-0.081 0.601,-0.376 0.601,-0.754 0,-0.377 -0.219,-0.688 -0.58,-0.782 C 0.835,-1.713 0.64,-1.72 0.45,-1.737 c -1.59,-0.139 -1.313,-0.055 -1.328,1.267 -0.004,0.365 0.104,0.455 0.449,0.469 C -0.302,0.004 -0.174,0 0,0" /></g></g></g></g></svg>