<?xml version="1.0" encoding="UTF-8"?>
<svg width="215px" height="44px" viewBox="0 0 215 44" version="1.1" xmlns="http://www.w3.org/2000/svg" xmlns:xlink="http://www.w3.org/1999/xlink">
    <!-- Generator: Sketch 49 (51002) - http://www.bohemiancoding.com/sketch -->
    <title>Full Color</title>
    <desc>Created with Sketch.</desc>
    <defs>
        <polyline id="path-1" points="5.823 0.355 0.375 5.855 13.383 5.855 5.823 0.355"></polyline>
        <polyline id="path-3" points="5.823 0.355 0.375 5.855 5.823 0.355"></polyline>
        <path d="M0.467,7.437 L2.33,7.759 L0.467,7.437 M6.773,0.705 L6.712,0.772 L8.898,4.146 L6.773,0.705" id="path-5"></path>
        <polyline id="path-7" points="6.712 0.772 0.467 7.437 2.33 7.759 8.898 4.146 6.712 0.772"></polyline>
        <polyline id="path-9" points="3.303 0.963 0.869 14.124 2.834 14.463 4.715 1.462 4.723 1.409 3.303 0.963"></polyline>
        <polyline id="path-11" points="3.303 0.963 0.869 14.124 2.834 14.463 4.715 1.462 4.723 1.409 3.303 0.963"></polyline>
        <polyline id="path-13" points="0.723 0.409 0.715 0.462 0.723 0.409"></polyline>
        <polyline id="path-15" points="0.723 0.409 0.715 0.462 0.723 0.409"></polyline>
        <polyline id="path-17" points="9.49 0.093 0.066 12.004 9.491 0.094 9.49 0.093"></polyline>
        <polyline id="path-19" points="9.491 0.094 0.066 12.004 15.282 9.148 15.261 5.476 9.491 0.094"></polyline>
        <polyline id="path-21" points="0.261 0.476 0.261 0.476 0.282 4.148 0.283 4.147 0.261 0.476"></polyline>
        <polyline id="path-23" points="8.418 0.436 0.066 2.004 9.795 10.177 8.418 0.436"></polyline>
        <polyline id="path-25" points="0.921 0.871 0.921 0.871 10.835 2.145 13.518 12.709 10.835 2.145 0.921 0.872"></polyline>
        <polyline id="path-27" points="3.921 0.871 0.834 22.878 6.165 23.759 16.518 12.709 13.835 2.145 3.921 0.872"></polyline>
    </defs>
    <g id="Page-1" stroke="none" stroke-width="1" fill="none" fill-rule="evenodd">
        <g id="Full-Color" transform="translate(-1.000000, 0.000000)">
            <g id="raptor">
                <polyline id="Fill-1" fill="#253B76" fill-rule="nonzero" points="25.283 28.147 10.066 31.004 19.492 19.093 25.261 24.476 25.283 28.147"></polyline>
                <polyline id="Fill-2" fill="#24366C" fill-rule="nonzero" points="53.898 26.146 48.417 17.686 40.309 14.927 37.869 28.124 47.33 29.759 53.898 26.146"></polyline>
                <polyline id="Fill-3" fill="#252E65" fill-rule="nonzero" points="10.066 31.004 19.795 39.177 18.418 29.436 10.066 31.004"></polyline>
                <polyline id="Fill-4" fill="#243B77" fill-rule="nonzero" points="25.375 43.855 38.383 43.855 30.823 38.355 25.375 43.855"></polyline>
                <polyline id="Fill-5" fill="#3877B1" fill-rule="nonzero" points="51.217 0.902 60.627 6.871 60.627 9.145 42.92 6.871 51.217 0.902"></polyline>
                <polyline id="Fill-6" fill="#242C62" fill-rule="nonzero" points="53.898 26.146 52.684 31.357 50.863 27.816 53.898 26.146"></polyline>
                <polyline id="Fill-7" fill="#E5E1DB" fill-rule="nonzero" points="40.415 14.37 0.919 1.77 25.261 24.476 40.415 14.37"></polyline>
                <polyline id="Fill-8" fill="#144C8E" fill-rule="nonzero" points="40.415 14.37 37.068 32.051 25.375 43.855 25.261 24.476 40.415 14.37"></polyline>
                <polyline id="Fill-9" fill="#1C5C9E" fill-rule="nonzero" points="52.835 8.145 55.518 18.709 45.165 29.759 39.834 28.878 42.92 6.871 52.835 8.145"></polyline>
                <polyline id="Fill-10" fill="#135697" fill-rule="nonzero" points="40.415 14.37 0.919 1.77 25.261 24.476 40.415 14.37"></polyline>
                <g id="Group-13" transform="translate(25.000000, 38.000000)">
                    <g id="Fill-11-Clipped">
                        <mask id="mask-2" fill="white">
                            <use xlink:href="#path-1"></use>
                        </mask>
                        <g id="path-1"></g>
                        <polyline id="Fill-11" mask="url(#mask-2)" points="5.823 0.355 0.375 5.855 13.383 5.855 5.823 0.355"></polyline>
                    </g>
                </g>
                <g id="Group-16" transform="translate(25.000000, 38.000000)">
                    <g id="Fill-14-Clipped">
                        <mask id="mask-4" fill="white">
                            <use xlink:href="#path-3"></use>
                        </mask>
                        <g id="path-3"></g>
                        <polyline id="Fill-14" mask="url(#mask-4)" points="5.823 0.355 0.375 5.855 5.823 0.355"></polyline>
                    </g>
                </g>
                <g id="Group-19" transform="translate(45.000000, 22.000000)">
                    <g id="Fill-17-Clipped">
                        <mask id="mask-6" fill="white">
                            <use xlink:href="#path-5"></use>
                        </mask>
                        <g id="path-5"></g>
                        <path d="M0.467,7.437 L2.33,7.759 L0.467,7.437 M6.773,0.705 L6.712,0.772 L8.898,4.146 L6.773,0.705" id="Fill-17" mask="url(#mask-6)"></path>
                    </g>
                </g>
                <g id="Group-22" transform="translate(45.000000, 22.000000)">
                    <g id="Fill-20-Clipped">
                        <mask id="mask-8" fill="white">
                            <use xlink:href="#path-7"></use>
                        </mask>
                        <g id="path-7"></g>
                        <polyline id="Fill-20" mask="url(#mask-8)" points="6.712 0.772 0.467 7.437 2.33 7.759 8.898 4.146 6.712 0.772"></polyline>
                    </g>
                </g>
                <g id="Group-29" transform="translate(37.000000, 14.000000)">
                    <g id="Group-25">
                        <g id="Fill-23-Clipped">
                            <mask id="mask-10" fill="white">
                                <use xlink:href="#path-9"></use>
                            </mask>
                            <g id="path-9"></g>
                            <polyline id="Fill-23" mask="url(#mask-10)" points="3.303 0.963 0.869 14.124 2.834 14.463 4.715 1.462 4.723 1.409 3.303 0.963"></polyline>
                        </g>
                    </g>
                    <g id="Group-28">
                        <g id="Fill-26-Clipped">
                            <mask id="mask-12" fill="white">
                                <use xlink:href="#path-11"></use>
                            </mask>
                            <g id="path-11"></g>
                            <polyline id="Fill-26" mask="url(#mask-12)" points="3.303 0.963 0.869 14.124 2.834 14.463 4.715 1.462 4.723 1.409 3.303 0.963"></polyline>
                        </g>
                    </g>
                </g>
                <g id="Group-36" transform="translate(41.000000, 15.000000)">
                    <g id="Group-32">
                        <g id="Fill-30-Clipped">
                            <mask id="mask-14" fill="white">
                                <use xlink:href="#path-13"></use>
                            </mask>
                            <g id="path-13"></g>
                            <polyline id="Fill-30" mask="url(#mask-14)" points="0.723 0.409 0.715 0.462 0.723 0.409"></polyline>
                        </g>
                    </g>
                    <g id="Group-35">
                        <g id="Fill-33-Clipped">
                            <mask id="mask-16" fill="white">
                                <use xlink:href="#path-15"></use>
                            </mask>
                            <g id="path-15"></g>
                            <polyline id="Fill-33" mask="url(#mask-16)" points="0.723 0.409 0.715 0.462 0.723 0.409"></polyline>
                        </g>
                    </g>
                </g>
                <g id="Group-39" transform="translate(10.000000, 19.000000)">
                    <g id="Fill-37-Clipped">
                        <mask id="mask-18" fill="white">
                            <use xlink:href="#path-17"></use>
                        </mask>
                        <g id="path-17"></g>
                        <polyline id="Fill-37" mask="url(#mask-18)" points="9.49 0.093 0.066 12.004 9.491 0.094 9.49 0.093"></polyline>
                    </g>
                </g>
                <g id="Group-42" transform="translate(10.000000, 19.000000)">
                    <g id="Fill-40-Clipped">
                        <mask id="mask-20" fill="white">
                            <use xlink:href="#path-19"></use>
                        </mask>
                        <g id="path-19"></g>
                        <polyline id="Fill-40" mask="url(#mask-20)" points="9.491 0.094 0.066 12.004 15.282 9.148 15.261 5.476 9.491 0.094"></polyline>
                    </g>
                </g>
                <g id="Group-45" transform="translate(25.000000, 24.000000)">
                    <g id="Fill-43-Clipped">
                        <mask id="mask-22" fill="white">
                            <use xlink:href="#path-21"></use>
                        </mask>
                        <g id="path-21"></g>
                        <polyline id="Fill-43" mask="url(#mask-22)" points="0.261 0.476 0.261 0.476 0.282 4.148 0.283 4.147 0.261 0.476"></polyline>
                    </g>
                </g>
                <g id="Group-48" transform="translate(10.000000, 29.000000)">
                    <g id="Fill-46-Clipped">
                        <mask id="mask-24" fill="white">
                            <use xlink:href="#path-23"></use>
                        </mask>
                        <g id="path-23"></g>
                        <polyline id="Fill-46" mask="url(#mask-24)" points="8.418 0.436 0.066 2.004 9.795 10.177 8.418 0.436"></polyline>
                    </g>
                </g>
                <g id="Group-51" transform="translate(42.000000, 6.000000)">
                    <g id="Fill-49-Clipped">
                        <mask id="mask-26" fill="white">
                            <use xlink:href="#path-25"></use>
                        </mask>
                        <g id="path-25"></g>
                        <polyline id="Fill-49" mask="url(#mask-26)" points="0.921 0.871 0.921 0.871 10.835 2.145 13.518 12.709 10.835 2.145 0.921 0.872"></polyline>
                    </g>
                </g>
                <g id="Group-54" transform="translate(39.000000, 6.000000)">
                    <g id="Fill-52-Clipped">
                        <mask id="mask-28" fill="white">
                            <use xlink:href="#path-27"></use>
                        </mask>
                        <g id="path-27"></g>
                        <polyline id="Fill-52" mask="url(#mask-28)" points="3.921 0.871 0.834 22.878 6.165 23.759 16.518 12.709 13.835 2.145 3.921 0.872"></polyline>
                    </g>
                </g>
            </g>
            <path d="M70.4930466,34.2014673 C71.6322803,34.3554178 73.387316,34.5093683 75.8197339,34.5093683 C79.8840271,34.5093683 83.240148,33.6472455 85.4262451,31.8306296 C87.3968115,30.1371741 88.8439462,27.3968552 88.8439462,23.4249323 C88.8439462,19.7301203 87.4891818,17.2053321 85.3338748,15.6042469 C83.3633084,14.1263221 80.77694,13.3873597 76.8050171,13.3873597 C74.4649695,13.3873597 72.2172922,13.5413102 70.4930466,13.8492112 L70.4930466,34.2014673 Z M75.1731418,17.174542 C75.5734131,17.0821717 76.2815854,16.9898014 77.2976587,16.9898014 C81.3619519,16.9898014 83.8867401,19.2682688 83.8867401,23.5788828 C83.8867401,28.5360889 81.084841,30.8761365 76.8050171,30.8453464 C76.2507953,30.8453464 75.5734131,30.8453464 75.1731418,30.7529761 L75.1731418,17.174542 Z M98.6919683,34.6325287 C102.694681,34.6325287 106.605024,32.1077405 106.605024,26.6271027 C106.605024,22.0701679 103.526014,18.8987876 98.9382891,18.8987876 C94.0734533,18.8987876 90.8712829,22.0085877 90.8712829,26.8734235 C90.8712829,31.7382593 94.2581939,34.6325287 98.6611782,34.6325287 L98.6919683,34.6325287 Z M98.7535485,31.2764078 C96.7829821,31.2764078 95.7053286,29.3366315 95.7053286,26.7810532 C95.7053286,24.5333759 96.5674514,22.2549085 98.7843386,22.2549085 C100.908855,22.2549085 101.770978,24.5333759 101.770978,26.7502631 C101.770978,29.4597919 100.631745,31.2764078 98.7843386,31.2764078 L98.7535485,31.2764078 Z M120.209438,30.4450751 C119.501266,30.7529761 118.639143,30.9377167 117.5307,30.9377167 C115.252232,30.9377167 113.404826,29.490582 113.404826,26.719473 C113.374036,24.2870551 114.975121,22.5320194 117.438329,22.5320194 C118.669933,22.5320194 119.501266,22.7475501 120.055488,22.9938709 L120.79445,19.5145896 C119.809167,19.1451084 118.454403,18.9295777 117.222799,18.9295777 C111.619,18.9295777 108.601571,22.5320194 108.601571,26.9042136 C108.601571,31.6150989 111.711371,34.6017386 116.576207,34.6017386 C118.362032,34.6017386 119.932327,34.2938376 120.76366,33.8935663 L120.209438,30.4450751 Z M123.859047,34.2938376 L128.508352,34.2938376 L128.508352,26.1344611 L129.893907,26.1344611 C131.833683,26.1652512 132.726596,26.8426334 133.311608,29.4597919 C133.89662,32.0153702 134.420052,33.6780356 134.727953,34.2938376 L139.531208,34.2938376 C139.130937,33.493295 138.515135,30.7837662 137.868543,28.4129285 C137.345111,26.5039423 136.544568,25.1491779 135.097434,24.564166 L135.097434,24.4717957 C136.88326,23.8252036 138.761456,22.0085877 138.761456,19.3914292 C138.761456,17.482443 138.084073,16.0353083 136.821679,15.0500251 C135.343755,13.8492112 133.188448,13.3873597 130.109438,13.3873597 C127.584649,13.3873597 125.367762,13.5721003 123.859047,13.8492112 L123.859047,34.2938376 Z M128.508352,17.0513816 C128.847043,16.9590113 129.493636,16.8974311 130.632869,16.8974311 C132.788176,16.8974311 134.08136,17.8827143 134.08136,19.7609104 C134.08136,21.5775263 132.695806,22.7475501 130.355758,22.7475501 L128.508352,22.7475501 L128.508352,17.0513816 Z M155.309404,25.3954987 C155.309404,21.8546372 153.739108,18.8987876 148.720322,18.8987876 C145.980003,18.8987876 143.917067,19.6685401 142.870203,20.253552 L143.732326,23.2401917 C144.717609,22.6551798 146.349484,22.1317481 147.888989,22.1317481 C150.198247,22.1317481 150.629308,23.2709818 150.629308,24.0715244 L150.629308,24.256265 C145.302621,24.256265 141.79255,26.103671 141.79255,30.0140137 C141.79255,32.4156415 143.609166,34.6325287 146.657385,34.6325287 C148.443211,34.6325287 149.982716,33.9859366 150.967999,32.7851227 L151.06037,32.7851227 L151.337481,34.2938376 L155.555724,34.2938376 C155.370984,33.4625049 155.309404,32.0769504 155.309404,30.6606058 L155.309404,25.3954987 Z M150.783259,28.8131998 C150.783259,29.0903107 150.752469,29.3674216 150.690889,29.6137424 C150.382988,30.5682355 149.397704,31.337988 148.258471,31.337988 C147.211607,31.337988 146.411065,30.7529761 146.411065,29.5521622 C146.411065,27.7663364 148.320051,27.1813245 150.783259,27.1813245 L150.783259,28.8131998 Z M158.740769,40.3902774 L163.420864,40.3902774 L163.420864,32.9082831 L163.482444,32.9082831 C164.159826,33.8935663 165.576171,34.6325287 167.392787,34.6325287 C170.748908,34.6325287 174.228189,32.0461603 174.228189,26.5655225 C174.228189,21.7622669 171.272339,18.8987876 167.977799,18.8987876 C165.791702,18.8987876 164.067456,19.7609104 162.959012,21.3312055 L162.897432,21.3312055 L162.681902,19.2374787 L158.617608,19.2374787 C158.679189,20.6538233 158.740769,22.3164887 158.740769,24.2870551 L158.740769,40.3902774 Z M163.420864,25.7649799 C163.420864,25.487869 163.451654,25.179968 163.513234,24.9336472 C163.821135,23.5480927 164.991159,22.5628095 166.315133,22.5628095 C168.40886,22.5628095 169.486514,24.3794254 169.486514,26.7810532 C169.486514,29.3366315 168.2857,31.030087 166.253553,31.030087 C164.898789,31.030087 163.821135,30.0755939 163.513234,28.8131998 C163.451654,28.5052988 163.420864,28.1973978 163.420864,27.8279166 L163.420864,25.7649799 Z M177.659554,16.4047895 L177.659554,19.2374787 L175.658198,19.2374787 L175.658198,22.6859699 L177.659554,22.6859699 L177.659554,28.8439899 C177.659554,30.9685068 178.090616,32.4156415 178.952739,33.3085544 C179.722491,34.0783069 180.984885,34.6017386 182.4936,34.6017386 C183.786784,34.6017386 184.926018,34.416998 185.51103,34.2014673 L185.48024,30.6606058 C185.049178,30.7529761 184.741277,30.7837662 184.094685,30.7837662 C182.709131,30.7837662 182.247279,29.9524335 182.247279,28.1358176 L182.247279,22.6859699 L185.6034,22.6859699 L185.6034,19.2374787 L182.247279,19.2374787 L182.247279,15.1423954 L177.659554,16.4047895 Z M195.469896,34.6325287 C199.472609,34.6325287 203.382952,32.1077405 203.382952,26.6271027 C203.382952,22.0701679 200.303942,18.8987876 195.716217,18.8987876 C190.851381,18.8987876 187.649211,22.0085877 187.649211,26.8734235 C187.649211,31.7382593 191.036122,34.6325287 195.439106,34.6325287 L195.469896,34.6325287 Z M195.531477,31.2764078 C193.56091,31.2764078 192.483257,29.3366315 192.483257,26.7810532 C192.483257,24.5333759 193.345379,22.2549085 195.562267,22.2549085 C197.686784,22.2549085 198.548906,24.5333759 198.548906,26.7502631 C198.548906,29.4597919 197.409673,31.2764078 195.562267,31.2764078 L195.531477,31.2764078 Z M206.044565,34.2938376 L210.72466,34.2938376 L210.72466,26.6886829 C210.72466,26.2884116 210.75545,25.9497205 210.81703,25.6418195 C211.124931,24.1638947 212.294955,23.2709818 214.019201,23.2709818 C214.542632,23.2709818 214.912114,23.332562 215.281595,23.3941422 L215.281595,18.9911579 C214.942904,18.9295777 214.727373,18.8987876 214.296312,18.8987876 C212.818387,18.8987876 211.001771,19.8224906 210.232018,22.0393778 L210.108858,22.0393778 L209.924117,19.2374787 L205.921404,19.2374787 C206.013775,20.5306629 206.044565,21.9777976 206.044565,24.1946848 L206.044565,34.2938376 Z" id="DocRaptor" fill="#231F1F" fill-rule="nonzero"></path>
        </g>
    </g>
</svg>