<?xml version="1.0" encoding="UTF-8"?>
<svg width="600px" height="280px" viewBox="0 0 600 280" version="1.1" xmlns="http://www.w3.org/2000/svg" xmlns:xlink="http://www.w3.org/1999/xlink">
    <!-- Generator: Sketch 46.2 (44496) - http://www.bohemiancoding.com/sketch -->
    <title>tocracy</title>
    <desc>Created with Sketch.</desc>
    <defs></defs>
    <g id="Page-1" stroke="none" stroke-width="1" fill="none" fill-rule="evenodd">
        <g id="tocracy" fill-rule="nonzero">
            <rect id="Rectangle" fill="#FFFFFF" x="0" y="0" width="600" height="280"></rect>
            <g id="Logo-def_web-(1)" transform="translate(70.000000, 125.000000)" fill="#282623">
                <polygon id="Shape" points="15.5021505 16.7478647 3.37769967 1 0 1 0 30 3.87374555 30 3.87374555 8.06712951 14.4125699 21.9015534 16.5802618 21.9015534 27.1248208 8.0613356 27.1248208 30 31 30 31 1 27.6208667 1"></polygon>
                <polygon id="Shape" points="60.808994 17.0129364 72.7422438 17.0129364 72.7422438 13.3598721 60.808994 13.3598721 60.808994 4.7283852 74.6728298 4.7283852 74.6728298 1 57 1 57 30 75 30 75 26.2643724 60.808994 26.2643724"></polygon>
                <path d="M115.499164,18.3875431 C116.400125,17.8429149 117.178228,17.1461965 117.810071,16.316218 C118.45069,15.481894 118.939198,14.544728 119.263895,13.5394835 C119.601755,12.5545178 119.774342,11.4840917 119.774342,10.3557265 C119.774342,9.19259777 119.553489,8.05264472 119.117635,6.97207932 C118.687631,5.87702912 118.073339,4.87178463 117.293774,3.98531542 C116.512746,3.09594925 115.562056,2.3717097 114.473882,1.83287548 C113.374008,1.28100494 112.149812,1 110.834935,1 L100,1 L100,30 L103.951943,30 L103.951943,19.7882224 L109.751149,19.7882224 L116.359173,30 L121,30 L113.96051,19.1132311 C114.498746,18.9249288 115.016506,18.6815843 115.499164,18.3875431 Z M103.950481,4.72693672 L110.757417,4.72693672 C111.446302,4.72693672 112.08692,4.87757854 112.667572,5.17741372 C113.284789,5.48304281 113.833264,5.89730783 114.295445,6.40717247 C114.769327,6.94310973 115.14814,7.55581639 115.418721,8.23225613 C115.690765,8.90145347 115.826786,9.61700215 115.826786,10.3557265 C115.826786,11.0669297 115.706853,11.7868238 115.471375,12.4907847 C115.234434,13.1947455 114.899499,13.8060037 114.47827,14.3100744 C114.049728,14.8329754 113.542206,15.2443434 112.923527,15.5673543 C112.370664,15.8686379 111.734434,16.0207282 111.030924,16.0207282 L103.950481,16.0207282 L103.950481,4.72693672 Z" id="Shape"></path>
                <path d="M319.51665,18.3875431 C320.426641,17.8269817 321.202034,17.1317117 321.819423,16.3176665 C322.449979,15.4949303 322.940086,14.5563159 323.276578,13.5307927 C323.615996,12.4980271 323.790093,11.4290495 323.790093,10.357175 C323.790093,9.22736127 323.566253,8.08740822 323.122962,6.97063084 C322.686986,5.8712352 322.072523,4.86599071 321.29713,3.98386694 C320.501254,3.0858099 319.551763,2.36157035 318.477916,1.83287548 C317.382123,1.27955647 316.15905,1 314.843807,1 L304,1 L304,30 L307.957433,30 L307.957433,19.7882224 L313.759719,19.7882224 L320.363731,30 L325,30 L317.962937,19.1132311 C318.505713,18.9249288 319.028006,18.6815843 319.51665,18.3875431 Z M307.95597,4.7283852 L314.760415,4.7283852 C315.461195,4.7283852 316.084436,4.87468158 316.672565,5.17886219 C317.288491,5.48014585 317.821025,5.88427151 318.300892,6.40862095 C318.773443,6.93586734 319.147973,7.548574 319.417166,8.23370461 C319.695137,8.9202837 319.837049,9.6343839 319.837049,10.357175 C319.837049,11.079966 319.715619,11.7969632 319.475686,12.4936816 C319.243068,13.1846062 318.909503,13.7958643 318.483768,14.3115229 C318.055107,14.8315269 317.548906,15.242895 316.937369,15.5688028 C316.365334,15.8744318 315.742093,16.0221767 315.028145,16.0221767 L307.954507,16.0221767 L307.954507,4.7283852 L307.95597,4.7283852 Z" id="Shape"></path>
                <rect id="Rectangle-path" x="144" y="1" width="3" height="29"></rect>
                <path d="M218.285507,14.2550847 C219.028986,15.0731238 219.923188,15.7335341 220.937681,16.2172915 C221.998551,16.7363794 223.186957,17 224.468116,17 C225.704348,17 226.856522,16.7581213 227.898551,16.2784406 C228.947826,15.7946832 229.855072,15.1560148 230.592754,14.3814595 C231.357971,13.5838034 231.952174,12.67472 232.353623,11.6854634 C232.782609,10.6758238 233,9.59824067 233,8.48260923 C233,7.43356238 232.798551,6.38723327 232.401449,5.37215814 C232.005797,4.36795396 231.430435,3.45479401 230.689855,2.65442018 C229.93913,1.85540522 229.03913,1.20994245 228.017391,0.737056049 C225.986957,-0.227740927 223.156522,-0.248123961 221.076812,0.692213373 C220.044928,1.16238204 219.13913,1.79561498 218.385507,2.57560578 C217.663768,3.33385467 217.075362,4.23886141 216.634783,5.26616636 C216.213043,6.2893947 216,7.37241328 216,8.48125037 C216,9.5180674 216.201449,10.549449 216.598551,11.5454999 C216.985507,12.5361154 217.553623,13.4479165 218.285507,14.2550847 Z M220.021739,8.48125037 C220.021739,7.8751948 220.136232,7.27185697 220.362319,6.6834667 C220.569565,6.12089495 220.886957,5.59501265 221.304348,5.11940851 C221.7,4.67098175 222.17971,4.30816373 222.726087,4.04046654 C223.23913,3.78771691 223.831884,3.65998322 224.486957,3.65998322 C225.113043,3.65998322 225.698551,3.7836403 226.218841,4.02416011 C226.769565,4.29049843 227.250725,4.64380437 227.646377,5.07048923 C228.063768,5.52842807 228.389855,6.0529515 228.613043,6.6223176 C228.837681,7.21614335 228.952174,7.84258194 228.952174,8.48260923 C228.952174,9.09138254 228.837681,9.69607923 228.613043,10.2844695 C228.397101,10.8579122 228.07971,11.3878711 227.673913,11.8566809 C227.276812,12.3051077 226.798551,12.6638491 226.252174,12.9261108 C225.295652,13.3962795 223.753623,13.4044327 222.775362,12.934264 C222.215942,12.67472 221.736232,12.3254907 221.346377,11.8947292 C220.933333,11.4449436 220.607246,10.9177024 220.373913,10.3225178 C220.14058,9.74771625 220.021739,9.128072 220.021739,8.48125037 Z" id="Shape"></path>
                <path d="M277.263083,21.589085 C276.876945,22.3782784 276.377652,23.0788306 275.780764,23.6707257 C275.186704,24.2640505 274.53041,24.7615855 273.82744,25.147604 C273.135785,25.5293335 272.403112,25.8124137 271.649222,25.9939854 C269.526167,26.5086768 267.502122,26.3042299 265.714286,25.3920824 C264.553041,24.8044764 263.526167,24.0052751 262.66761,23.020213 C261.800566,22.0094163 261.108911,20.8327746 260.612447,19.5246007 C260.114569,18.2192861 259.864215,16.8210412 259.864215,15.3670381 C259.864215,14.0745908 260.077793,12.770706 260.500707,11.4925557 C260.912306,10.2301321 261.531825,9.07636561 262.342291,8.06556892 C263.140028,7.06763952 264.138614,6.2498521 265.306931,5.63508184 C267.043847,4.72150463 269.270156,4.47416683 271.442716,4.95597515 C272.121641,5.10752317 272.785007,5.35200158 273.465347,5.70370736 C274.123055,6.05827253 274.743989,6.51720568 275.312588,7.06763952 C275.879774,7.62665155 276.360679,8.31433642 276.739745,9.11353776 L277.188119,10.0571386 L280.435644,8.19281207 L280.043847,7.37788405 C279.183876,5.52070598 277.833098,3.97806153 276.028289,2.79141195 C274.212164,1.60190298 272.008487,1 269.480905,1 C267.34512,1 265.415842,1.43176888 263.743989,2.28243936 C262.066478,3.13310984 260.640736,4.24112601 259.503536,5.5793236 C258.364922,6.9189509 257.486563,8.45587655 256.891089,10.150069 C256.299859,11.837113 256,13.5556103 256,15.258381 C256,17.0855354 256.328147,18.8883849 256.97454,20.6126011 C257.599717,22.3411063 258.513437,23.9223526 259.685997,25.3105896 C260.859972,26.697397 262.268741,27.829718 263.872702,28.6775291 C265.50495,29.5553638 267.330976,30 269.298444,30 C270.349364,30 271.468175,29.8556005 272.626591,29.5725202 C273.765205,29.2865806 274.848656,28.8562414 275.845827,28.2943699 C276.878359,27.7196312 277.810467,27.0033524 278.609618,26.1698383 C279.463932,25.2934332 280.137199,24.2969335 280.60396,23.2160816 L281,22.3511142 L277.694484,20.7269769 L277.263083,21.589085 Z" id="Shape"></path>
                <path d="M357.079022,1 L345,30 L349.163565,30 L352.813249,21.0860596 L364.162618,21.0860596 L367.85347,30 L372,30 L359.967823,1 L357.079022,1 Z M362.829653,17.5025224 L354.117823,17.5025224 L358.50142,6.90255232 L362.829653,17.5025224 Z" id="Shape"></path>
                <path d="M413.280992,21.5943894 C412.87909,22.3950599 412.375297,23.0956466 411.788011,23.6775625 C411.179497,24.2780654 410.521454,24.7756249 409.837937,25.1559434 C409.126118,25.541981 408.410053,25.8179263 407.647289,26.0023665 C405.540134,26.5170833 403.49383,26.3111966 401.714989,25.4004339 C400.541832,24.8099394 399.514435,24.0106986 398.665346,23.0270177 C397.802106,22.02332 397.110098,20.8480501 396.610551,19.5326628 C396.109589,18.2086969 395.856278,16.8089533 395.856278,15.3734655 C395.856278,14.0852438 396.069965,12.7827244 396.494509,11.5002219 C396.906317,10.2491742 397.524737,9.09535079 398.331371,8.07449588 C399.123854,7.0893852 400.124363,6.27012769 401.301766,5.63959966 C403.042398,4.72311788 405.265595,4.47290835 407.440677,4.9604595 C408.127024,5.11344476 408.811955,5.36508406 409.469999,5.70822857 C410.096909,6.04279446 410.718159,6.50175023 411.312521,7.07222797 C411.863014,7.60553173 412.344164,8.29611004 412.747481,9.12537593 L413.201743,10.0590149 L416.433941,8.197456 L416.054681,7.37819849 C415.178705,5.51235024 413.824408,3.96962974 412.028586,2.79293004 C410.215782,1.60336242 408.012397,1 405.482113,1 C403.352315,1 401.417808,1.43321994 399.732367,2.28679189 C398.058247,3.13893408 396.633194,4.24700488 395.494,5.58097915 C394.356221,6.92639156 393.478829,8.46339299 392.885882,10.1505201 C392.298596,11.8190603 392,13.5376424 392,15.259084 C392,17.0777498 392.324069,18.8806883 392.966546,20.6149978 C393.610438,22.3564561 394.524624,23.9363506 395.680799,25.3103584 C396.839805,26.6900853 398.249292,27.8224622 399.869637,28.6788937 C401.518284,29.5553419 403.343824,30 405.296728,30 C406.353844,30 407.473225,29.8555934 408.625156,29.5724991 C409.745953,29.295124 410.834201,28.8661934 411.857353,28.2942859 C412.874844,27.7252379 413.807427,27.0089237 414.631043,26.1639304 C415.470225,25.2874821 416.13959,24.2937928 416.622156,23.2085983 L417,22.3464478 L413.706951,20.7222304 L413.280992,21.5943894 Z" id="Shape"></path>
                <polygon id="Shape" points="456.664792 1 448 15.0864592 439.479996 1.16947205 439.375973 1 435 1 446.123378 19.0089406 446.123378 30 449.887868 30 449.887868 19.088607 461 1"></polygon>
                <polygon id="Shape" points="172 4.7283852 187.22789 4.7283852 187.22789 30 191 30 191 1 172 1"></polygon>
                <rect id="Rectangle-path" x="215" y="25" width="17" height="3"></rect>
            </g>
        </g>
    </g>
</svg>