<?xml version="1.0" encoding="utf-8"?>
<!-- Generator: Adobe Illustrator 16.2.1, SVG Export Plug-In . SVG Version: 6.00 Build 0)  -->
<!DOCTYPE svg PUBLIC "-//W3C//DTD SVG 1.1//EN" "http://www.w3.org/Graphics/SVG/1.1/DTD/svg11.dtd">
<svg version="1.1" id="Layer_1" xmlns="http://www.w3.org/2000/svg" xmlns:xlink="http://www.w3.org/1999/xlink" x="0px" y="0px"
	 width="406.665px" height="63.379px" viewBox="0 0 406.665 63.379" enable-background="new 0 0 406.665 63.379"
	 xml:space="preserve">
<g>
	<polygon fill="#282623" points="52.583,32.523 44.126,21.651 41.77,21.651 41.77,41.672 44.472,41.672 44.472,26.53 51.823,36.081 
		53.335,36.081 60.69,26.526 60.69,41.672 63.393,41.672 63.393,21.651 61.036,21.651 	"/>
	<polygon fill="#282623" points="84.494,32.706 92.956,32.706 92.956,30.184 84.494,30.184 84.494,24.225 94.325,24.225 
		94.325,21.651 81.793,21.651 81.793,41.672 94.557,41.672 94.557,39.093 84.494,39.093 	"/>
	<path fill="#282623" d="M122.296,33.656c0.616-0.376,1.148-0.857,1.58-1.43c0.438-0.576,0.772-1.223,0.994-1.917
		c0.231-0.68,0.349-1.419,0.349-2.198c0-0.803-0.151-1.59-0.449-2.336c-0.294-0.756-0.714-1.45-1.247-2.062
		c-0.534-0.614-1.184-1.114-1.928-1.486c-0.752-0.381-1.589-0.575-2.488-0.575h-7.408v20.021h2.702v-7.05h3.965l4.518,7.05h3.173
		l-4.813-7.516C121.612,34.027,121.966,33.859,122.296,33.656z M114.4,24.225h4.654c0.471,0,0.909,0.104,1.306,0.311
		c0.422,0.211,0.797,0.497,1.113,0.849c0.324,0.37,0.583,0.793,0.768,1.26c0.186,0.462,0.279,0.956,0.279,1.466
		c0,0.491-0.082,0.988-0.243,1.474c-0.162,0.486-0.391,0.908-0.679,1.256c-0.293,0.361-0.64,0.645-1.063,0.868
		c-0.378,0.208-0.813,0.313-1.294,0.313H114.4V24.225z"/>
	<path fill="#282623" d="M265.519,33.655c0.622-0.387,1.152-0.867,1.574-1.429c0.431-0.568,0.766-1.216,0.996-1.924
		c0.232-0.713,0.351-1.451,0.351-2.191c0-0.78-0.153-1.567-0.456-2.338c-0.298-0.759-0.718-1.453-1.248-2.062
		c-0.544-0.62-1.193-1.12-1.927-1.485c-0.749-0.382-1.585-0.575-2.484-0.575h-7.412v20.021h2.705v-7.05h3.966l4.514,7.05h3.169
		l-4.81-7.516C264.828,34.026,265.185,33.858,265.519,33.655z M257.617,24.225h4.651c0.479,0,0.905,0.101,1.307,0.311
		c0.421,0.208,0.785,0.487,1.113,0.849c0.323,0.364,0.579,0.787,0.763,1.26c0.19,0.474,0.287,0.967,0.287,1.466
		s-0.083,0.994-0.247,1.475c-0.159,0.477-0.387,0.899-0.678,1.255c-0.293,0.359-0.639,0.643-1.057,0.868
		c-0.391,0.211-0.817,0.313-1.305,0.313h-4.835V24.225z"/>
	<rect x="142.6" y="21.681" fill="#282623" width="2.705" height="19.991"/>
	<path fill="#282623" d="M194.313,31.832c0.513,0.602,1.13,1.088,1.83,1.444c0.732,0.382,1.552,0.576,2.436,0.576
		c0.853,0,1.648-0.178,2.367-0.531c0.724-0.356,1.35-0.826,1.859-1.396c0.528-0.587,0.938-1.256,1.215-1.984
		c0.296-0.743,0.446-1.536,0.446-2.357c0-0.772-0.139-1.542-0.413-2.289c-0.273-0.739-0.67-1.411-1.181-2
		c-0.518-0.588-1.139-1.063-1.844-1.411c-1.401-0.71-3.354-0.725-4.789-0.033c-0.712,0.346-1.337,0.812-1.857,1.386
		c-0.498,0.558-0.904,1.224-1.208,1.98c-0.291,0.753-0.438,1.55-0.438,2.366c0,0.763,0.139,1.522,0.413,2.255
		C193.416,30.567,193.808,31.238,194.313,31.832z M195.511,27.583c0-0.446,0.079-0.89,0.235-1.323
		c0.143-0.414,0.362-0.801,0.65-1.151c0.273-0.33,0.604-0.597,0.981-0.794c0.354-0.186,0.763-0.28,1.215-0.28
		c0.432,0,0.836,0.091,1.195,0.268c0.38,0.196,0.712,0.456,0.985,0.77c0.288,0.337,0.513,0.723,0.667,1.142
		c0.155,0.437,0.234,0.898,0.234,1.369c0,0.448-0.079,0.893-0.234,1.326c-0.149,0.422-0.368,0.812-0.648,1.157
		c-0.274,0.33-0.604,0.594-0.981,0.787c-0.66,0.346-1.724,0.352-2.399,0.006c-0.386-0.191-0.717-0.448-0.986-0.765
		c-0.285-0.331-0.51-0.719-0.671-1.157C195.593,28.515,195.511,28.059,195.511,27.583z"/>
	<path fill="#282623" d="M235.793,35.952c-0.273,0.552-0.626,1.042-1.048,1.456c-0.42,0.415-0.884,0.763-1.381,1.033
		c-0.489,0.267-1.007,0.465-1.54,0.592c-1.501,0.36-2.932,0.217-4.196-0.421c-0.821-0.411-1.547-0.97-2.154-1.659
		c-0.613-0.707-1.102-1.53-1.453-2.445c-0.352-0.913-0.529-1.891-0.529-2.908c0-0.904,0.151-1.816,0.45-2.71
		c0.291-0.883,0.729-1.69,1.302-2.397c0.564-0.698,1.27-1.27,2.096-1.7c1.228-0.639,2.802-0.812,4.338-0.475
		c0.48,0.106,0.949,0.277,1.43,0.523c0.465,0.248,0.904,0.569,1.306,0.954c0.401,0.391,0.741,0.872,1.009,1.431l0.317,0.66
		l2.296-1.304l-0.277-0.57c-0.608-1.299-1.563-2.378-2.839-3.208c-1.284-0.832-2.842-1.253-4.629-1.253
		c-1.51,0-2.874,0.302-4.056,0.897c-1.186,0.595-2.194,1.37-2.998,2.306c-0.805,0.937-1.426,2.012-1.847,3.197
		c-0.418,1.18-0.63,2.382-0.63,3.573c0,1.278,0.232,2.539,0.689,3.745c0.442,1.209,1.088,2.315,1.917,3.286
		c0.83,0.97,1.826,1.762,2.96,2.355c1.154,0.614,2.445,0.925,3.836,0.925c0.743,0,1.534-0.101,2.353-0.299
		c0.805-0.2,1.571-0.501,2.276-0.894c0.73-0.402,1.389-0.903,1.954-1.486c0.604-0.613,1.08-1.31,1.41-2.066l0.28-0.605l-2.337-1.136
		L235.793,35.952z"/>
	<path fill="#282623" d="M291.768,21.651l-8.509,20.021h2.933l2.571-6.154h7.995l2.6,6.154h2.921l-8.476-20.021H291.768z
		 M295.819,33.044h-6.137l3.088-7.318L295.819,33.044z"/>
	<path fill="#282623" d="M331.363,35.949c-0.284,0.56-0.64,1.05-1.055,1.457c-0.43,0.42-0.895,0.768-1.378,1.034
		c-0.503,0.27-1.009,0.463-1.548,0.592c-1.489,0.36-2.935,0.216-4.192-0.421c-0.829-0.413-1.555-0.972-2.155-1.66
		c-0.61-0.702-1.099-1.524-1.452-2.444c-0.354-0.926-0.533-1.905-0.533-2.909c0-0.901,0.151-1.812,0.451-2.709
		c0.291-0.875,0.728-1.682,1.298-2.396c0.56-0.689,1.267-1.262,2.099-1.703c1.23-0.641,2.801-0.816,4.338-0.475
		c0.485,0.107,0.969,0.283,1.434,0.523c0.443,0.234,0.882,0.555,1.302,0.954c0.389,0.373,0.729,0.856,1.014,1.436l0.321,0.653
		l2.284-1.302l-0.268-0.573c-0.619-1.305-1.576-2.384-2.845-3.207c-1.281-0.832-2.838-1.254-4.626-1.254
		c-1.505,0-2.872,0.303-4.063,0.9c-1.183,0.596-2.19,1.371-2.995,2.304c-0.804,0.941-1.424,2.016-1.843,3.196
		c-0.415,1.167-0.626,2.369-0.626,3.573c0,1.272,0.229,2.533,0.683,3.746c0.455,1.218,1.101,2.323,1.918,3.284
		c0.819,0.965,1.815,1.757,2.96,2.356c1.165,0.613,2.455,0.924,3.835,0.924c0.747,0,1.538-0.101,2.352-0.299
		c0.792-0.194,1.561-0.494,2.284-0.894c0.719-0.398,1.378-0.899,1.96-1.49c0.593-0.613,1.066-1.308,1.407-2.067l0.267-0.603
		l-2.327-1.136L331.363,35.949z"/>
	<polygon fill="#282623" points="361.523,21.651 355.359,31.376 349.298,21.768 349.224,21.651 346.111,21.651 354.024,34.084 
		354.024,41.672 356.702,41.672 356.702,34.139 364.607,21.651 	"/>
	<polygon fill="#282623" points="161.766,24.225 172.686,24.225 172.686,41.672 175.391,41.672 175.391,21.651 161.766,21.651 	"/>
	<rect x="192.442" y="39.093" fill="#282623" width="12.29" height="2.579"/>
</g>
</svg>
