<svg xmlns="http://www.w3.org/2000/svg" viewBox="0 0 623.62 255.12"><defs><style>.cls-1{fill:#fff;}.cls-2,.cls-4{fill:#f7971d;}.cls-2,.cls-5{fill-rule:evenodd;}.cls-3,.cls-5{fill:#58829e;}</style></defs><title>mysql</title><g id="BG"><rect class="cls-1" width="623.62" height="255.12"/></g><g id="Logo"><path class="cls-2" d="M472.9,218.59h1.88v-9.21H472l-2.3,6.28-2.51-6.28h-2.72v9.21h1.78v-7h.1l2.62,7h1.35l2.62-7v7m-15.17,0h2v-7.65h2.61v-1.56H455v1.56h2.71Z"/><path class="cls-3" d="M227,218.6H214.45q-.66-31.86-3.68-59.92h-.1L191.5,218.6h-9.58l-19-59.92h-.12q-2.12,26.94-2.67,59.92H148.62q1.11-40.11,5.57-75.19h15.59l18.16,55.25h.11l18.27-55.25h14.92Q226.15,184.51,227,218.6Z"/><path class="cls-3" d="M281.62,163.13q-7.68,41.7-20.28,60.61-9.79,14.58-21.49,14.57a21,21,0,0,1-7.69-1.87v-6.7a36.29,36.29,0,0,0,5.24.33,12.65,12.65,0,0,0,8.8-3,11,11,0,0,0,4-8.24q0-3.12-3.11-12.81l-13.81-42.88h12.36l9.91,32.07q3.34,10.92,2.79,15.27a209.74,209.74,0,0,0,11.36-47.34Z"/><path class="cls-4" d="M449.15,218.6H413.39V143.41h12v65.94h23.73Z"/><path class="cls-2" d="M404.66,220.41l-13.82-6.81a26.09,26.09,0,0,0,3.46-3.36q8.81-10.35,8.8-30.63,0-37.31-29.29-37.31-14.37,0-22.4,9.47-8.79,10.36-8.79,30.52,0,19.82,7.79,29.07,7.13,8.35,21.5,8.35a34.77,34.77,0,0,0,9.85-1.32l18,10.47Zm-44.78-16.85q-4.56-7.35-4.57-23.61,0-28.41,17.27-28.41,9,0,13.26,6.8,4.56,7.35,4.56,23.39,0,28.62-17.26,28.63Q364.11,210.36,359.88,203.56Z"/><path class="cls-4" d="M336.75,197.76a19.94,19.94,0,0,1-7,15.7q-7,6.12-18.82,6.13-11,0-21.38-7l3.23-6.46q8.91,4.45,16.15,4.45,6.78,0,10.63-3a10.22,10.22,0,0,0,4.09-8.35c0-4.46-3.11-8.28-8.82-11.48-5.28-2.89-15.82-8.94-15.82-8.94-5.71-4.16-8.57-8.63-8.57-16a18.71,18.71,0,0,1,6.4-14.76q6.4-5.62,16.54-5.62A34.28,34.28,0,0,1,332.41,148l-2.91,6.45A36.92,36.92,0,0,0,315,151.32q-5.79,0-8.91,2.79a9.33,9.33,0,0,0-3.37,7.12c0,4.45,3.18,8.31,9.05,11.58,5.35,2.89,16.15,9.05,16.15,9.05C333.82,186,336.75,190.46,336.75,197.76Z"/><path class="cls-5" d="M464.53,117.8c-4.35-4.84-15.41-11.26-21.79-13.46-2.51-.87-7.81-2-9.15-3.94-4-5.76-9.53-19.23-14.93-31.23-4.44-9.9-15.17-22.75-28.59-31.55-13.82-9.07-21.7-6.58-23.9-7.27-1.24-.39-3-2.13-4.26-3.1-5.88-4.6-14.22-6.87-15.68-4.86-2.28,3.15,3.32,9.05,5,11.5a48.79,48.79,0,0,1,4.54,7c2.36,5.09,3.45,10.73,5.63,15.81a36.06,36.06,0,0,0,3.27,5.81c1,1.37,2.82,2.37,3.37,4.1,1.09,1.81-1.64,7.81-2.28,9.71-2.36,7.46-1.9,17.81.82,24.27,1.1,2.54,3.66,6.74,5.65,7.27-.15-3.85.67-14.43,7-21.34C382.46,98,390.6,109.86,394.42,115c1.28,1.82,6.51,7.33,6.83,7.61s.07.22-.1.14a68.38,68.38,0,0,1-7.68-6.08c-5.78-5.28-13.36-15.12-14.86-19.92-2.54,4.16-2.49,11.92-2.79,16.6-5-.25-9.09-4.51-10.94-7.51-4.65-7.53-7.16-21.28-.79-36.28.73-1.72-1-2.34-2.18-3.92A46.81,46.81,0,0,1,358.54,60a55,55,0,0,1-4.72-12.17c-1.14-5.07-4.54-9.54-6.08-11.63-2.09-3-8.45-9-6-14.89,3.77-8.95,17.32-1.92,19.92-.42,2.43,1.41,5.39,4.13,6.85,4.77,2.27.09,10.89,0,18.44,4.09,15.94,8.62,29.28,20.7,37.84,39.69,4.64,10.3,11.49,25.45,13.13,27.45.64.91,3.15,1.65,4.29,2.07,11.44,4.25,22.34,12.44,29,21.65-6.55.14-17.8,3.1-20.48,4.46,1.38,3.69,8.42,7.71,11.35,9.68a53.2,53.2,0,0,1,9.39,7.87,22,22,0,0,1,3.41,4.94c.13.26,0,.35-.29.18s-4.3-3.46-6.42-5c-4.06-2.89-9.57-4.9-13.12-7.09-2-1.27-9.58-5.46-12.07-13.28C449.07,119.07,461.08,117.65,464.53,117.8Z"/><path class="cls-5" d="M374.52,41.41c2.32,3.37-1.1,6.45-1.2,6.54a35.51,35.51,0,0,0-2.3-4.42,32.19,32.19,0,0,0-3-3.77A5,5,0,0,1,374.52,41.41Z"/></g></svg>