<svg id="Layer_1" data-name="Layer 1" xmlns="http://www.w3.org/2000/svg" viewBox="0 0 1920 1080"><defs><style>.cls-1{fill:#8babea;}.cls-2{fill:#fff;}</style></defs><title>intro</title><rect class="cls-1" width="1920" height="1080"/><path class="cls-2" d="M1251.49,464.11c15,0,25.07-9.39,25.07-23.76a29.66,29.66,0,0,0-8-19.72h-33.61a29.13,29.13,0,0,0-8.2,19.72C1226.72,454.72,1236.6,464.11,1251.49,464.11Z"/><path class="cls-2" d="M1251.49,572.48c15,0,25.07-9.36,25.07-23.76a29.64,29.64,0,0,0-8-19.73h-33.61a29.17,29.17,0,0,0-8.2,19.73C1226.72,563.12,1236.6,572.48,1251.49,572.48Z"/><path class="cls-2" d="M1081.86,421.27a48.74,48.74,0,0,0-29.92-45,243.78,243.78,0,0,0-183.87,0,48.76,48.76,0,0,0-29.92,45V782.73a48.79,48.79,0,0,0,29.92,45,243.9,243.9,0,0,0,183.87,0,48.78,48.78,0,0,0,29.92-45c0-.14,0-.27,0-.42V421.69C1081.83,421.55,1081.86,421.38,1081.86,421.27Z"/><path class="cls-2" d="M1251.81,848.3c-15,0-25.09,9.19-25.09,23.74,0,8,3.85,15.71,8,19.57h34a29.42,29.42,0,0,0,7.86-19.57C1276.56,857.67,1266.7,848.3,1251.81,848.3Z"/><path class="cls-2" d="M789.39,297.2a48.74,48.74,0,0,0-29.91-45C731.11,240.62,700.08,233,667.55,233H570a24.38,24.38,0,0,0-24.36,24.36V946.63A24.36,24.36,0,0,0,570,971h97.51c32.53,0,63.56-7.62,91.93-19.23a48.77,48.77,0,0,0,29.91-45c0-.12,0-.24,0-.39V297.62C789.38,297.49,789.39,297.34,789.39,297.2Z"/><path class="cls-2" d="M472.57,234.21C349.42,246.46,253.21,350.36,253.21,476.73c0,.41,0,.8,0,1.22s0,.8,0,1.2c0,126.37,96.21,230.28,219.36,242.51A24.36,24.36,0,0,0,497,697.3V258.6A24.39,24.39,0,0,0,472.57,234.21Z"/><path class="cls-2" d="M1251.81,632.36c-15,0-25.09,9.2-25.09,23.76,0,8,3.85,15.71,8,19.55h34a29.35,29.35,0,0,0,7.86-19.55C1276.56,641.72,1266.7,632.36,1251.81,632.36Z"/><path class="cls-2" d="M1350,233h-97.49c-32.53,0-63.57,7.62-91.93,19.23a48.75,48.75,0,0,0-29.92,45c0,.14,0,.29,0,.42V906.39c0,.15,0,.27,0,.39a48.78,48.78,0,0,0,29.92,45c28.36,11.61,59.4,19.23,91.93,19.23H1350a24.36,24.36,0,0,0,24.37-24.37V257.36A24.37,24.37,0,0,0,1350,233Z"/><path class="cls-2" d="M1666.79,476.73c0-126.37-96.19-230.27-219.34-242.52a24.38,24.38,0,0,0-24.37,24.39V697.3a24.35,24.35,0,0,0,24.37,24.36c123.15-12.23,219.34-116.14,219.34-242.51,0-.4,0-.79,0-1.2S1666.79,477.14,1666.79,476.73Z"/></svg>