<?xml version="1.0" encoding="utf-8"?>
<!-- Generator: Adobe Illustrator 22.1.0, SVG Export Plug-In . SVG Version: 6.00 Build 0)  -->
<svg version="1.1" id="Layer_1" xmlns="http://www.w3.org/2000/svg" xmlns:xlink="http://www.w3.org/1999/xlink" x="0px" y="0px"
	 viewBox="0 0 1920 1080" style="enable-background:new 0 0 1920 1080;" xml:space="preserve">
<style type="text/css">
	.st0{fill:#2D2D2D;}
</style>
<g>
	<path class="st0" d="M1112,303.7c0-26.6-16.2-49.4-39.3-59.1c-37.3-15.2-78-23.6-120.7-23.6c-42.7,0-83.5,8.4-120.7,23.6
		c-23.1,9.7-39.3,32.5-39.3,59.1c0,0.1,0,0.4,0,0.6v473.5c0,0.2,0,0.4,0,0.6c0,26.6,16.2,49.4,39.3,59.1
		c37.2,15.2,78,23.6,120.7,23.6c42.7,0,83.5-8.4,120.7-23.6c23.1-9.7,39.3-32.5,39.3-59.1c0-0.2,0-0.4,0-0.6V304.3
		C1111.9,304.1,1112,303.9,1112,303.7z"/>
	<path class="st0" d="M728,140.8c0-26.6-16.2-49.4-39.3-59c-37.3-15.2-78-25.3-120.7-25.3H440c-17.6,0-32,14.3-32,32v905
		c0,17.7,14.3,32,32,32h128c42.7,0,83.5-10,120.7-25.3c23.1-9.7,39.3-32.5,39.3-59.1c0-0.2,0-0.3,0-0.5V141.4
		C728,141.2,728,141,728,140.8z"/>
	<path class="st0" d="M312,58.1C150.3,74.2,24,210.6,24,376.5c0,0.5,0,1,0,1.6c0,0.5,0,1.1,0,1.6c0,165.9,126.3,302.3,288,318.4
		c17.7,0,32-14.3,32-32v-576C344,72.5,329.7,58.1,312,58.1z"/>
	<path class="st0" d="M1880,376.5c0-165.9-126.3-302.3-288-318.4c-17.7,0-32,14.3-32,32v576c0,17.7,14.3,32,32,32
		c161.7-16.1,288-152.5,288-318.4c0-0.5,0-1,0-1.6C1879.9,377.6,1880,377.1,1880,376.5z"/>
	<path class="st0" d="M1464,56.5h-128c-42.7,0-83.5,10-120.7,25.3c-23.1,9.7-39.3,32.4-39.3,59c0,0.2,0,0.4,0,0.6v799.3
		c0,0.2,0,0.4,0,0.5c0,26.6,16.2,49.4,39.3,59.1c37.2,15.2,78,25.3,120.7,25.3h128c17.7,0,32-14.3,32-32v-905
		C1496,70.9,1481.7,56.5,1464,56.5z"/>
</g>
</svg>
